<mxfile host="app.diagrams.net" modified="2023-11-02T12:37:09.762Z" agent="Mozilla/5.0 (Windows NT 10.0; Win64; x64) AppleWebKit/537.36 (KHTML, like Gecko) Chrome/118.0.0.0 Safari/537.36" etag="TuxyrdeAdJXlxvCFiOis" version="22.0.8" type="device">
  <diagram name="第 1 页" id="PPhdmSXQ1CoikLgfEZwS">
    <mxGraphModel dx="336" dy="533" grid="0" gridSize="10" guides="1" tooltips="1" connect="1" arrows="1" fold="1" page="1" pageScale="1" pageWidth="827" pageHeight="1169" math="0" shadow="0">
      <root>
        <mxCell id="0" />
        <mxCell id="1" parent="0" />
        <mxCell id="WpK5NCzdg6L0wyz9mHTw-1" value="" style="shape=image;verticalLabelPosition=bottom;labelBackgroundColor=default;verticalAlign=top;aspect=fixed;imageAspect=0;image=data:image/png,iVBORw0KGgoAAAANSUhEUgAAAMsAAACsCAYAAADVCljRAAAAAXNSR0IArs4c6QAAAARnQU1BAACxjwv8YQUAAAAJcEhZcwAADsMAAA7DAcdvqGQAAKWjSURBVHhe7f0HlKXXdd+J/ivnnHNVV3XOETkDBEiCFJNISqIkS6Y1mvHz2F5vvbWsWV5efmtkvzX2yO+N7RnbcpBkaSRSpEiJEQQRCCI2utE5d+Wcc45v//at07goVHVXVXeDBIVdffq79375fPt//nvvs8/5YpZM9JF8JB/JLSV2efmRfCQfyS3kI7B8JB/JOuUjM+xvs9ij94dvy8WFBc1NTWlhfl7zMzNeFubmfLm0uKh5+7wwO+vbITExMYqNj1dCcrISU1NvlISUFMUnJrKBb/OLJB+B5RddogDBow4AoMyxnJ6OLK2MDwxodnJS06OjmhoZ0Yx9nhoe1oIBZGp8XNNWAAzmSGxsrAMlLSdH6QUFyigsVEZ+vn9Oz8tTYlqakjMylGjgiY2LiwDnQw6ej8DyCyo8VhjBwWEK7gCx5cTgoMZ6eyOlr0+jPT0OkhnWGTBmDTwAgzJrTDM9NqYZO86EAQfwxNjxEuz4cab4CUlJSs3MVHpurtKsZBhwAExuWZnyKytVtH27csrLlZadHWEdA9eHmXE+AssvoLjZZMqPWQUgBltaNGBlpLtbwx0dGrXlWH+/RmzdsIFmZGhIE7bflJVZKzPLZd4KyjG3XPgcb8XBYgVJssJvZnjJoKAUM82ysrJUaiAp2bpVxdu2qXTHDpXt2qWC2lpnmjgz0z6MgPkILL8oYo9xEZAYg0ya8vc1NKj76lX1XLum/sZGDba2asxYZNKYYtbYYcq2HTXzash8lBGYww4xbSWAhSVgQVCQaCVBzUMBJACHJcBJMhAkmomWZqDJTEhQgbFKZVWVavfsUe3Bg6rcv1/FdXVuosXZ+hjb9sMiHxhYfhaY/EVzMNcSnG58jXFjC0DSdfGiOi9cUNeVK84kU+aDuEllbDNu4BiyfUaiCkAJzIEEcFCigbGaBFWP3i6UFCvpBpocY5NCM9GqjG12GWB2Hz2qSgNPgZlqqQYmAgUfhmf1gYCFU8zbQ8JR3OjpqMRQNiKb3Q/ZzD63Izc7362uZdHqFZ8DkLSfPavWU6fUaWABJPgnmGLzVu+wxuBy6bMyZgUGASSLVjgL7IBJFQqMEZY3a//ZnxgZBTaiwEwBbOybbE4+oCkvLNR2M832HT6sXUeOqGr3buWWlrp59vPOMncdLBx+Dtq3hzaDk7kMmvVKnFUyhejLegUFC/tsZD+EfUPZqGx2v9WuMRwr3lrdtQRGwScBJPWvvaamt95ys2vU/JAFq+vwaFFcQNJkZcDKpBXW4HsAEJYUfI7wPfp3ys1qEbAEvyYABf8n+D7R/k+83WuemWBbzTTbbyxz8P77tcuYptT8mZT09J9rwNxVsLgNbeCYNBNhZGREo2YOsAQ46xWUJcFsW8p6FRGgJCUlbWifoJwBYOvZL+yzsqwlK9eH7yvPF36jpKNAUeuC4MRPmG/ScuKELj7/vK6/8op6rl/XzPg4LZQrMA+WPVHWbitXraDQKH+qlTQrmEoUwEGBRQKjBFahrH1X72WWUILPw7kBp13VjcL6FHs2ZUVF2rd3r+579FEde+IJVW7dquS0NA81/zzKXQMLQIFRJiYmHCQDZio0NTWpwcyFfrOt1yuJiYlKMYpOTk525bmVoFjsk2aVDmDWK+wDMAEax1hNQaMlnCd6+1vtx7YAmCWy1j7h+rmeIlOolffNI5ubnnaT69Q3v6krL7ygXqtXTC4eJsqI2YWyAgzOhm/SZgVgABJYJDAJZW3+uj0JwKF5pACW4eUyZ/eVnZWlnTt26MlPfEKPPfusyrdscYZZ81nbvbvCLqvtDfWlHsNyRX3eKbkrYAEos8Ttl4ECOC5fvqzXzFS4YI7noNnS6xUUJrDEesCCsA/gYp/1Ci14amqq77se4VoyzJzg2jYKYpbRD3Tlwy01G37Xrl1+7HJzilcen76TofZ2Hf+zP9Ppb33LTS8cfB4kiok/grnF5xwrBVY4AooaABJ9xLujWu9KULBgrsE0gIVrHLF7i7U6qa2r07Of+YweN9BUmU+TanW7sl5QVTpFyTLAV/PGIQosCVavCfYMCU2vV1c2InccLAAF3wTTa3h4WJ2dnTprNjVAOX36tLq6uhxItK4oaEFBwY2WdjWhwqLLeoXK4tYwAym3EtgL5bzZtUQL1xLYjnum3EoAL/sAyJX3gh9H48K13nvvvfr1X//1VcGC+UV0q/GNN/Ti//F/qPnkSe9ln+d3W48C9lohwgWLlFgptkKzwRVypLsNjpsJysZ1AGTAS2RuyO5vzpS8Zvt2Pf3pT+uhJ59UNX0ydv/eoWos6pkGdJjavc9YPQGUCbNWFpfVN5bnkZmpDNOn1NxcpebkeKSNztA7ZdbdUbCgMNN2Qzx02KOlpUWnzFR49dVXdfHiRf8NfwXFoBWvs9bkUbNXUaA7LQEoXA/lVoJCUtYLyABegM/x1xO0YHvAuNo5YOBLly55A/OsmSO/93u/5/VSVlb2HrAEVjn1jW/olf/0nzTU1ubmLq01IGm3AlAyrcAoFD7fGXW5c4LS0YTxZEatDFKXxjB1+/froccf117zZbJMR2asXug3okGYtM/j5vNOW0M8aw0yvwEW7o2MAsy3DANKOlkEVVUqNMDlVld7Kk6SHft2QXPHwIKywCjj5mD29fWpvr5e77zzjt58800HCoKSjI2N+Tb08t5zzz36nd/5HTdn7rQEsHBN6wHLZiSwaIjy3Y7QsHznO99RR0eHPve5z+mf/bN/5myHSRYNFsytLjNpf/of/6P7K5METOxeCQe3WOmxkm2lygpAwT/BsPxZssnNZCXLLBkj1BrDbDclz7PGYhZ9MVAQGBozvRmzxnbK6nrO9A3W4TljViYAFmPsVKuzdNOnAqu3ImuMS82cLTXgFdpnQORJnpuU2wYLuwdGAQTd3d26evWq3n77bR0/ftwdesyOHebEsd3169fVZq0hYHnooYf0T//pP/XPd0M4H0q8kVD1RoR759gUznU7gqn6n4wpmpubHSz/5J/8E2ffkpKS94AFM6TZ6vaFf/NvdO2VV9zcxQMEKBQUb6eVGivpVu6W434nBQXkCWFGjtq9wgJ5VjJNb5YMEBOmWwO2HOEzumbbcZ/sR63DF9wnMEg10GTYfvm2f76xTHFNjaoOH1bt/fer8uBBZRmI4mz9ZiTun5ssf96wRAMFMwKgnDt3Tj/96U+dUWgteeAwyMMPP+w+CttQsN9RhMcee+yumGFIMHs4190q+BVcPyxwOwXf7sSJE678mCD328Pl2CtDx3O2vs9Y+9KPf+w5XpPWGBAWxvwi4oWfAlBw7PFTfl4ZJVq4RpoDrjfJdCoexrCGd850Cv9kyph71O4TBgUkcHjo1yE0DSthynH/BDcA1KTp5Aymm1k5lHljpCTTRTKiGUawmf6cje8RJQEoUCQA4GH/8Ic/1Msvv6x2s6sBw1NPPaXPfOYzOnbsmCoqKlwxEIBGq78asQUQ3onCsX7eymoCO7EuABCArObbhLElOLtsj68Cs6AotLKen2WF1vbDAJRoQRlpNukD4h74zj3AA/hdhVbKrVQsFz6XWgl+GdsBnA4r9VYarH5azYxrunZNl00nz3//+2o9c8YBSD1uVDZthqHoOOs4pK2trTp58qReeOEFd1I5JM47UR1AEpxUzLI/+7M/c4efFpN1/+Jf/AvlmJ0aBPu/t7fX/Z7bERQtKN56I1wfhGRnZ/u9c23RYPixMcUf/uEfenDki1/8or761a/eiBZGm2GksFw35v7hv/yX6jh/Xo0Gmsv2OwqCoDiHlpfrD5z//AlKCXMEkwvfi/uhJlBz2CUsKWwDq3h0bfkzx8i1Umb1XGHsX2NO/+4nntA9X/mKSvfs8TE3qzVIa8mGwcLmtIIAJTjy+CcAAH+EB7x7924dNjtxj10QDir9CoALQP3pn/6pXnrpJe9vACy///u/r1yzLcNFEzEDVBxzYXFJMQmJiom3aorZGAmiYAAFMxDF1KL5FXNG2s5mG29V7pQcNLt527Ztfs/RIMC5/6M/+iOv3y996UseOibwkW9O6Xt8FmPxJqufH//BH3iKy3UzywifdFmhBnHuD1shZLx5V/ZnK/gvMGZQfL5jWhIGCt4GSruyhGwBTDKaWgq/wTrlVodbTOe2WSN+6POf14HPflYFW7ZExtisUzbsswRGoQVsbGx0/+QVczTpnc8zexA2ue+++xww9D4HkwIloBf/vLWGOP0AqLi42H0ZgBPAAlMBKgDV2t2rnvl49cakq2cpWT1zcRsqvVa652LVaZ5j+/ic2oYn1TYypbbRGbWPzd7hMmPHnlbr4JjaBkbVxnK5tPYOqsnqqun6VVd+GpDMzMz3gIB6wcmnvg4cOOANTQB7dOuH+UBKCz32dEYOGRNjhtGS0gSwJa0pCkJL/O6eHx4JYXAyDoju8T3fCuZZsBG4Lwo1SAlOPuYbhj6F39gX02zG9C/GGvl4090YY+M001WiY0nWuK83pLwhsOADhKgXgCEkjH9C9Av/5MEHH3SghJYTQAQBLAABhYCBAliIiMFGQXEIFBAkgFlGpuc1X75LC1sOaaF0m+Zyy9ddZnMrNJtTpqmsUk1mFmkivVDjaQWayCjWZFaJFfv9TpbMUju2nSM5R+MpuZpIzdcE57MyFpei/vZm9TfXq6621k1UTM9osJwxWxrA0HDAPkQPQ+BgpanAc6BDjhAy9TVsSuAKEVntikJ8Mdj9HyYB8HSsApROKzQCmFn4JreK7lFL0aChsC91Q1kwHYyzxj7W6izBAJLJUGgzc93hX1HHq8mGwUK0JvQ0459gMtEx98wzzzhLVNMJZObDamkjBAIAC+DCNApgoZUNfgVAvGYtJoozY486cdf9Stn7kBKrdysuv3xDJTbffKW8UsXkWskrU0xBpWKLqhVbXHPnC8ctrFKsn6NKcSVbrNR6UVquptrqNdVRr317djsQVpphsCn3TBgdZtm6daszy0qwEMWhJYRhGP04aqbwqDVgY6YIhF5RNkwSTBZaYp7CrdXg50fwU2ATfLBggnFPZVaCE3+r+wmggVmp4WCa4f9Qb8nGxjGmwwyHzjaWZ8mYmlvJhhue0KcQfBcE8+vQoUMe7aJlXMuhBkC3yr1CMQBSxM9YdOWISU5VbGrG7ZU0A2R6tuIycu5OycxTfHah4gsqlGBASTCQRMoWxRcZgFKtXbyJ30Vgg3oFQKH++LyyxeM7Yz+Kd+7UjscfV7UBr8Qap1zblpYUoBAZo1XGPAv9ER8WQaNQaliSz1w7S77DEusVag2whNw4AgTBvOs1ve1pbfX+qi5r8PED1yMbAgsPKjw8mIWCoNi0gDzklQ83CL/TUt4KLCgIx2O7mCWrJpxxA+aHQqgf6iDOrp3rp6zRcKyUEDrm/gNI1qpLWkFmUdn5xBM68MlParf5N5XWSOHc80BpnQFLsxWc3A8bYFbeNdce+ldgmfUKx8F9BzAwLfti1pHzTgdnmwGl7fRpDXd2ekN1K9kws4QHCVDISeIhB7a5mbAPfko0WDhGaFGDcHy2c39n0RRowaroNqJX6FtiXIzyUuJVlGamX1QpTItXVpKB02phdbW8ffF4/vxs5D5uorL4gtQHDUW0r7eW0DCR/7THzN97P/Np7T1ySHlZGCoRwSQL/Q2tVkIA4Odd0A4YkhqIVk7u5+Y1uLpwDHw4mIXjwlL4RJh4g729Pk9Bf1OTd/beSjYMltDioeCAhAeMz7IuZC6zBiWYcShJ9L4cOzCL5ue0hKLdBlhIsMtIjFNdbqL2FCZrb9G7ZXdBsioyE5VqaIm9a2hZigDFwbK20GhQH9FgoS5uJvHG1PmV5SrctU2pVWVaSEm+oUzUGI8fhgEwjVbo6SfJMpg3P48CWPC1gr8VBNMMxtzodVOD1CZgATTUC/4LQwQmTG+HjFX6m5s9x+5WsmmwBEHRYRiU/1bCfjdYwyQALnrf94DF1i8Zu6BwmxVAABgAxZacRANN0o2yJSdJRekJSopbf7bxxuXmPfdBQoNDgxJ8lltdU4wd0zhe43NT6pma1CAsvbwuKcH8Qyuzdm+9dhjAct0K+WP0yaAsgCm01tHlZyncMYoNR0b3gGyWWRBAF8LJ7I9J57PZWP2N9vf7VFHr8Vs2BBYeXihBeMCwC8tbKQT7BWYJsnKfaDPMT2PHjZhhm3+M8XaX6YmxZnLFvadkGuOk2Mo4Q9TN1fLuS2AWgBJMVeriZrI4P6PJ4T51tJuz2tGpoXFUgHqWKosLtb26QmVFBUpMTdFofJzabQWAoTRZgXVweDFJCK2G1hulDDW++VrfvMAq+F+AhhrgGgDLZn0vmh6AF8AXjkcZI6O5q0szYxiqN5dNMUv0EmVfyQ5rCfugCNF+CyCLlmhTje2XOLaBcWlx84+NPdl980e4+xLA8m5DcQv4WgOyODOhkd4udXV0qH9wSLNz87aflGD1e3Tfdn368fv01P2HtHdrjYoL8pSQnqohY5t2Y5tGayCu2caMywc8+DUwjju/VgAPzEMUCgBhun1QAMK3gFnoKwreWwDLe7VlfYKS0zy/20RHGgYKXSGMlyHX7layKbBEP0gecHjQtxL2AwQoQwDZSn8nbHODfdxvsceFObZJYYDQvKFlHXj+mQmmLPUQ6uemYjeCH7QwNaoBwNLTo9EbrBKr3OxMHdu3Q7/05AP69V96Sl/59JP65KP36sDOOpUW5istM0NzKSnqN+A0W+N0HdBYuWKFPDNKABB9HtHMg8IG4NwtQbtgFdglsAGADefe6GNEyWmeo+OSHIsyZw0xQ5VplG8lmwZLKCj9en0WBFZBIdh+teBAMMPYxo8PSLiRTWo6e8EqgGU1iW6/ff5ea3ET4t5f7N/mhNOuw4wMYOGeg/kVfJeV4g3NzJSmhgfU3d2jrt5+jU7Q9lr9GmtsKS9RiTFJQW62dm+t1icfuUdf+dQT+u3PP6Pf/OzH9OnH7tUDB3drZ22VSooMPAauRWOd0ZRkdScmqNmOAesAmkvLhc8EChgKAPsAzc0q73oEdoFZMMmoemqQc91apd8v7E9NRgMGUzOYm+uVDYMF4YGi9DxMHiwPjwd9K8AEEyu65YwGCsKx2Ybj89nDx4t2W7cREUNcZyMf3xU7PP4KQQDTD2UmxarEHP7KzMT3lLKMBGWYj7Mp4bqtUbgV4IkKrjTD/P6jhPWYDf39vWppatTZc+f0zvnLamrr0sRkAEuctlSUOFCSaXSsHrMy0lRXVaZHju7T5z/2kL78ycf1a5963BjnCf3qs4/rM08+qMfvP6x7Du7S7u1bVGnb5hiIEnKyNJeVoVHbv8eA1GZAarSKgoka7FwAB9bhzLT8PKE7BRwUG1ZBU1BSCk9gUwprEgAT9g/A28j1bvjcKHwAC0odwBIY4maAYb/AGgjbrtye472HWRbsMVi5G5nCXoFWAwAm3s6Vl0KIOUk785PfU7bnJfm6zQj9LB7+vknomDoIzMK9h8Fw0WBhG/LxOpjV5a3j+sFzz+k7P3pZr544q5bOXk3PzkXq1+qtqrRIuabkCQmRa6ZOU5ISlWPmV0VxgfYY29x/cI+eefCoPvfUQ/rlZx7WF5628rGH9TkD02cNPJ96/H499fAxPXDPAR0+tEfbd21VyZZKpZYVazY3S90pSe73ECigPwe2ISQbfIv1KCLrg9KuFO48AASBYaiVzT2FdyXUKNq0UXBvGCw8EAoPAGZxhbYHuR6/hW2jmYX9VgJsJVjon4h0TG7kttYvBv3In50q09ij1FikOjvxPaUyK9GjZ++q7gaE6/bw9+pgD0Ch7vhMlgMl1HMQ1mG2Dpkzev3aVZ1656QuXL2u1i7zVyYmfP84q7v0tBSVFOb6Mi72/arl26SmGPNkqaKkUNuqy7R/e63u3b9Tjx7bp2ceOqrPPHG/g+eXn3lEnzcwfc7Bc5+eNr/nUQPYwSP7VFRTqYm0VLXZ8QhLE5LGx4FtiLARWwI0azVxPE3WhyTHlU+X/UJggbvIsxISKTfzHDh+AAjCMUJZr2waLNElPPCVJtVKYdtosLD9Sn+HbVhP8WMDQMoaymabuBm1svC7/Vu3+LWZY5KaEONh5uhCiDmJ+PNGDnhDVqrBe4V7p6GhLsK9AxaE75TwmbpLMwWFNQoyU1VemOefYRMkPj5OucYe9OQnm8kUS0XcQpx1khP9OPg5+Dv4Mgd21uqefTv04OE9evSe/Q4iomuff/ohN+Uev/+Qio1lZpKT1GvXBrsAlDAXQPBtiKit1oRSK6xjm5CSE5SZAkMBIn7H2Wd8Dikr78ZR1y8BKFxH0KLAWht5pHcELAitHg8+WvFXEx44he1QkNUcfNaH8DL+CsyyWuiYU+OQ01eysiTjlHN3thuXdIvLuqlwnHXo3aaEesBfYQlTR997qFuEz+TfVZaX66F7jugzTz3oyrt/xxZlpaNOkZBxQW6mMg1QawUH1iswULKZbtmZ6e7/YNrtNDPs0M6teujIXj390DEd27tDOQayeTsXLEAVo9wkcGKeUYimofgrq5/vRNdIPSFkHXwffiN44OkoVtiuyApDiulU3Mxj4BgAJdqhp4YpGwHApsGCRJtioXW8mbBd8HUQtg/mRxC2CYDy87gZZo9iFWYBKLnmS1RmmZ1uplIoFfa9KD1e6SR9mXB4xjKsBuT1VD4TuFHuhnBN1B3LYH6uJdQ35lV5ifkdtRXaXVftoeBkYwYkwZglLzvLzSy2vRsCW2XY8bdVlekhY51SY7fEhHj3KUijr7OCcqOcgCAABhCtFJ4o4IBdMOHoJKXAUuwLaAgfVy8vqZnNPAXOA1CivcbV8s9uJRuqUZTXFXhZAEowqYLPsppCBokGwloSmCWAxRMR10h5IUESH2NPYcp7cr722vfanCRlp8R7qxIJHUf2iRbuBJ2CObhutlv76u+OcN4QCYvOyl5Z1xEB8HYj1oDEWL342qhNMMMyM1IdPHcL3AjXRcCAsHRhXraDherlqWIuMQR4mxWyffFdgkkWXbdcHQpLAUgBKDAN+7AtIz4rrTBKEi3b7B0B3NBHFASWAuDMN2Y3FCm3kA03PygzhQpjGZglmGE3E7YDBAFgbL8aswT2cVOC0PEaPku8tXI45SUGGEK+0aUgNV5pgVko9t/7rs7qJ5hYC7aSMf9r3QJ1eevqXE3smIS+Afz7r8DvPbDySmZ5Hzuwu223xNCFVY6F6ZSanKyk5YbmbgrPpiQ/V9lMvmHPC0WkcPX0vjOykYn+UEpMKpx+rjoId8Y6+lLwRcgUoHDVACj04AcwAaDgw6zxiNYUGAWwUBDODVA4f5LVuU/xGlXva8mKp3Fr4SFEP4jwOeSH3UzYNrBGAMpKBx9hOxQH0MQ4WFY3w/x4pun4J8n4KTdK5DsO+63E7sYfENdws6sHUHRablhQbrIQPKK3/FuUcN7gtxEyvilYTPwQa2gL9QFQ6GvZzKVuRDh+gjEK4WlMMxQyKDJXTXMICLgblBRnfuVlsw3swVzMRLqiGYCCGYbzj4lG0ADzDNBEg249gj/F+fGJqBZC0Fwby1QDu79d2QBzK9kwWBAeSnSJbh1XKn60sG0ACwJYVjr4CNsFsACSiIO/iirbuVY/W8THQMFvJqwOJRxnrasHKPTHbFQwmxwszizvF+orDFMALIF1qYP1SPRW7IMphvJGmoC7J6QQjU/y6j2ioEsOFpQSCfXJHRNmQClhiJVXhMEJg2C6UdgGdoGJAAlmWYiuMZCNcfnkra3WqPHbas+O3zkmwAOIKDxA4bzUNK8mzy4rU8o6phC+LWah5Qs29mpKv1IiDzPeFQIloazm57BdMEli3Ua3al+xDeI+xio1xNWh13dSYcIxNyxcHxdKWUWiwXKjgTAJdXwzARQ8g+Cf+P/23zp2vS3hmmcMJE3tXeofHvUXugIWCneJUgXFQgXDRHgr43NcJgqLb8OEeQQGaN/RIpSbTk6YhGWYSBDFX1mTgTkAw0oN5Jo4FoXPNNOcz8FidceEFQyiS17HFMKbBku04vPAUPpbSTQIgqwECsJ2bOOKQ4vsZtj7tyPfCz/jAxGUcPnjnRTuP5iiASyhflcXLiTy2NgWsyvOY+QRJVpcWPRWfy3O3YxwbQsG5gU7Ns8ZoPQNDuutM5fV3t3n7MLTRxlRVq4GEBDBwkHfYoXQ72p3xLYwCgqMj0NwgH0AGGwDgAiMs+9qDMV5CQoQRAjzhEUL5hxgAyyci2OFDs4UM71yKiqUV12tZDPHbiWRWt6ghAcJSIKDD7OsxhLRwnY84AAWWtO12CiAyn0Wzzp+/3Y3abC9QgMT3CzrmG0iLBTBYygrZflQd1yoL9JYArOEulkLLD6BBz3ztj45KUHpqWa6UU/2nWOgyPPzmMPLO9ymcJzJ6Rl19g6oqaNb9W2dOne1UT9+45R+9PpJdfb0+9AATgdYaOX5DIvAEoAgOnt4NeFOuWu2J/IFWLZa2b78OTjjYZrWwFAABYCQ4HnNCj4NoAiCxsBMsBLMA9AACsdxMJeWqnjHDuVVVq5rsr1Ng8Xpf7mEB34rdmE/FIKCsP3NfBYHix3b86veR7ARWUspQoIk6wHU/Cob+kNa3g6Tje0iTPX+bfFZiL7daeHeA1iCg78WUGyF/bNHZmCJiU1QYryBJSXFI2A49bT8YxOTmp5hKPb772FzQprNgrr7BvX2uSv6zktv6ms//Im+/cJrulDfrDHzW8LzC+ZQODN3gWJT1lNzKCOgARgUjkMEjOPCTIFl2I7fAEoACSYav4XzsC/XQhSOUaEIQCOYwDLdzK6KfftUsX+/v79lPROFbxosFFglmA2BVdbLLGHbW4El4uBbNazY5mZiuy8zRqTquCQv/u29EtnW/rN/MFDEhHm/cLzNOPiRs3LtlMjsLdxftISwO/dL/SArt7kh9ntMnAEqwcxfM7/opKQHn9523lkyNDruM8ivrNNNi50vMZH3nkRa3oGhUTW2dpm/0q3RsUkHaBBMIBQzusnkLtZba+xHxArFBwh0ZsIMeBNMBE7kDIXlN+YToMOTIACg4OpCqJnjwDCso3MTXwYjC6AU2v3QwJTt2aO6hx5Syc6d/saw9chtgyW0hOvpZ0FQFhSCfdl+tYfK8eig82OT7kI0aZXQMSSwumovP6Sop7TWlcEoka0j24SyUtYTXVtVAB8NyXI0jHunUA9IaDBYhk5J7j+sf58YszD3c2wik+/FKjM9VXk5mUozc2zOzCF8iVFjF3yMOyHcMmZecX6Odmyp0L7tW7R7a5WPvjy0q0415SXKSEv160XR6XxEUTd6duoc/wL/g1AxyZkoO7+h6NgiHB8QsT4MEQAIBBEIEGBecb2YXawjgkZkjX1hpTK7Rt77UrJ9u3Y++aRq7r3XI2FxNMrrkE2BJbSOKDwFCT34txL2QyFQDBRkNYCxTbQZ5k7+KtvBAnQmvn9NRBwGm1Hw1WSzxzGlJUXfKse/BvbgHhEai2CGrZtZ4o1VkswgMbBkZ6SrKD/b88GISvX0D2toZExzZjqtUmWbEp4359leU6GHDu/Vpx+7T7/y7GP6zc98TM8+eo+DKNMYbt6uLeR6rRaZupUERgBwYW4AAAJzBCbBPyGUzDYcH7YhHQawAArOz3aAiW3QTkBUYfdQlpGh8q1btevpp7XrqadUxKyf5tivWdcr5LaYhUoMLWBI2VhN+aOF7VGKkFm7FmDeVSr7wvpVDnvTaJjtx663ZAPW32qbZVlnnb5HQnqKg8XuIzQw4QFx7wzoigbLzR4ebAJYYgCLHYdExtKCPOVkprtJNDAyqp6BYU1O3TpXb73C1RBxS01OUllRnjHKVj39wBF99qmH9OVPPKan7j+srdXlSklN0bhdO6yACbVRwNC+45NgFOHUo+gABfDRx0KBWWAbtgEkO6wQRaOJ4ZxhnjSAhoaRr7bF6qkqO9tn79zz8Y/r4Oc+p7K9e5VifstGXmp0W2DhwcIAAGA9rBKE/VAMTLfQmRktHPsGs9AhOWfVs0qnHjBZAyr2gCOdiDftxLd1VMCNTQAui8i39wjb3OxQt5bIUVcDAvdPie7BXxMw1H2smXGJqQaaJGVaa0kyY2Fejudo4dy3dfVqeGxM8xt4JusRrinS2MUrxYCTlpKkXbWVzjSUvdtqFJeU4CxwxQpmFIBZj3C3MAN+BcmYvOrPkzLtnOmm7Nl23hL7TBiaKBnrKQAFNgKgOPsAhhrEx2H9dtu3NjdXO44c0ZEvflFHf+VXVHHggJKs3jYCFGRTYEECWGAIKnA96S5I9H43A0toZT3rGDNmFZ/lZhKUG18DCNDLvJLAHFCGJtiHbTHpfKz+KmiJtw2InN1p4d4Ds1An3kDYNVPWEkLHsUmpikvJVILtU2JgqasqVUFetgPkalObscuQh5HvtvDsOTfmGEOVn7z3oDNQj10/M8fQyuOQr1Kl7xPuGIaANTCrSMY8YM74J0zRP/Pww3qkuloHzOfYugwc2AczDR+FZgFzCyDtsfV7rR73FxTo6H336cFf+zU99NWvav9nPuOmFz7Kzep3Ldk0s0QvedDrNcPYJzASshrA2CYwi+snx7zFcVeTUB3oP0BYTTi+n8MK23E5q50q4uCHI945ob6Cz0K9BB/wpg/T1sUkJis2NVOxCcnmfOf5WBPGnHAj9S2dau/q83H5t3oed0IIAJQXF+qRowf0pWce1dNH96mAucrsOvEfAAwdgzzpta6G31H4oA3UgvetWGNwYOdOPfn5z+uJX/1VHTEzqmbfPmXn5/t78qmzAiu1dg27jZkPGIscMXPrPnPgHzQWeei3f1v32H7bHnlEOeXlPovnTev2JnJbZhgl2N/rSXdB2DYaLKsJ29xoZe2Ynhu2xkN3INzitOzq41mWv0eLV5udz2X1U0TENtlcFUfOj/CqCO4tWriv0IPPPTub3krsGEw+Hpuc4Y4+r6lgQgrGt+C79A+N6FJDq3ckYpZ9EJKUmODDmZmC6YtPP6xHd9apIj1NM9YS4WsQmcLh5moARXRV8/gIO7M+pPPDGAgp9GlWL1v279cR8zXu+/Vf19Evf1n7PvUp7Xj0UW07dEgHdu/WMWOf+wwQ93/yk3rQzK2HfuM3fNtdH/uYSm09E6nfzmu9kU2DBfrlwQazIYDlVi1ZNFjYdi02Yr0rjoeOMcNWt78BwZrTHHGdVnztzS9rfbIZtHBv/jaASD9KtHOPcO+rpehHb7OqmKMPUGJTs5Scnukt+2FzvLeZo42cvdrgnYZ9BpyN+JO3I3SM5pspeM/hvXr28fv00NZqlaana9J0BbDAMvgzsAy+DD3+XBlLwME6olhEu+iv4XeENxGk5uSoyBhjq5ljBz/7Wd1nYLj/7/wd3W/AeMBY50ED0IO/+Zu6z347/IUveGgY3ySnrMwzim9Zn+uQ22IWHnx4uBsJHbMfQGD7tVL0Oa4DkU5JALMGa7ErgHmfWN3g3K+n1z1swVFWOZLLDXNto+Kdqlx/ZNJv7jv6wXHv0ekuYX30NmtJTEKS4tKyFWfmWG5evvbtqNW9B3apKD9XDW1dOn7uiq43t2tiKjIS84MQnm22Aea+B4/qYw8d1ZGtVR7Wxq8I/ScwTQgN0wEJeCgABAediBd+zgK6YnVCsiPvpOH99anZ2Sratk11Dz6oPZ/4hA4aUA4bYADQHmMVwFQCk/AuThrbOyi35bNQMRQktI63eijsG5gFsNysB/+GYt3MmVhDuEKycm8WDWMVh/el/xI5xWpn8XQXNt6geKqONQgEKhicBSNHA4H6iu6U9AbC1kdvs5bg6MelZCguPU8pmbmqKC32ucHoLIw15jlzuV4nLlxVZ1//HY+M3UyIMuWWFurgo/fqoYePaUtliZtamGDDdluABQahAB4Yh5QVUlvYjjunoOypZmLm19R4L3v0ux/5nGK/5ZvTX7x9uydE8h1A3S3ZFFh44KEEsKy3Bx8lQCEIk7L9amZY2AawcA6PiM2ZQq0RPt602BMBBDAGDweGiozVj6yOls3nhtnBwkuZVhHunbrjntfts0QJfS5xqbzRLE/p2Xnas61GHzcF3butWiNjk3rz9GUdP3PZ01RWNkp3W/LKinXogcPaZuBlfoAUq79qAGD3Gjoa8VFgHAAEy9A3QkdjtulVtjnrsESRgcFflIou/Axl02fn4QaG4HNIpLwVYKL3Q9h+tX1YT7kBljXCx+y7hssSEdfv5TTMFedhFQCIRLmWEymt3OxwmxIOuMZBuX7q7kbDsCzrVgw6KRNTFJ+eq4SsAmXm5OueA7t9Aj36QPqGhvXS8TN648wlzxtbj6kcLZH63VyNxFjd5hXkqbysRNmZxoAJ8SrNzdY+K7tSklUdF+v9KoR8yTbG26JvpcoayvLCQm05fFi7n37a2SPefjPlsbU/O9kUWFB4JPgefMcMo4W8lawGlpXmG9tw7MAuLmuYYZFo2Pt/5wohAor3n9h/798qsp3fjhXWb1Ivbi12fE6zUrh36o76CCzN/Yc6Xo9E+l3SFJ+Rr6TsIpWUlurBI/u9Z722olTd/UN66a3TOnH+qvqNYZgMez0CSOirYUTkjJmSmwENY9yLC3JVVlygebvOhexM7du/Q/eYf3WwpFC7sjK0PTVF283S2GXssSsvTztra7XrgQf8rWa1tkw1hlnv6wbvpmwaLLR8FB4wSx46rdatqH4lWNgHJ39li8d2bONgNDV2J38tsKzxEANYWO3m1fLvmxGOszzGatOCPU19BSBQV+HeMcGi14XlusS29Xwxc/QTsguVkluiGlO4h+45pCfuiwCGTsqfnjyvdy5dV0fPgKamb+30kz4zPDauxrYu9RjgIqn/yyvXKegGYKkpL/Z30fdZyamt0r77Duqe+w7p8L6d2r+9Tgd3bNfB/ft12Bz3w6SkfOpT2v7ooz4wi5DvhurjLsmmHz8XjyK7MttnKn494WO2DayBsP1avf9sQ2Fo8VoDwIDAqqezujUDxZQ8Ejq+ySW9KzfZBqvopqkza4kfM3Lg4JMEE4t7jnbuo5llw2L7xMYnKZboWFaR0gvKVLdtux6+74iefOCIh5Tpfzl5/prOXmlQc0e3BkfGPIeMwVsUAMRArzCYi+sbGZ/QhetNuljfrP7BjYehMcWK83K0xQDLNXbYObvtGLnba7XnkXt06IkHdPjxB3X06Sd17NOf1tEvfEGHPvtZB0pBXd26JpL4oOS2wXLDrzBZjykW9kM5gvAAVgNYMMPMm7CNDCxrOcnLy2hxdbP/rM317zcTtqC4gth1rHYtEWa59bHeJxwPBTMKTLUHz32vBAtLAh4BLMjtAIZwcnx2sdILy7VlqwHm/mP65OMPaP/OOh8CfLmxVacu1evi9Wa1dPZ4Wj+lo7ffWIfXV0xaVVsDZX+MumT8CgO/6ls7NDG13myviHAXvC8GZmE2/wEDy8mrTeo3PcmpqdB2Y5d9BpgDn3hK+z/1Se186klVHjnive2EizdVD3dJNg0WhIcb3VIGk+JWzBJAhtxs23fBYtuZk4/irRR+WusQ7LeequbyI+ZaxJld7XDrAd2qElhxad7nKQYU0WAJ/Uz8zr0i1FHYZjPC4LDYlCwDTJFSCipUUrNNR48e06c/9rgev/+ICnJz1Gsscf5ak05frvdhwny+XN+qlo4ejRmbUAeEn+mZx/w6fblBZ4yRMOe47vUK95KakqTy4nzVGbtxLFgK/6nbmC45K135ZYUqrCxSfkWJMkhjASS3cf93SzZ9RVQCYIluDUPH5K3AAghQDoRtb8YsbobRyvl0Qu9/SBEHf/nLClmvn2GeQgQs9vmOR8O4ZmNF0nbSzYGNZpDALNw78xjfNrNECcpGZjJ9MAk5ZcoorVXVjn164MGH9MRjj+i+Y0dUY/5AQlKyRiZnNDY5bT5VnPJyspSRkWkMZRZDfGQoRVJSgjqNdQITTds1b0To2WfS8WN7t/s7Y4ZGxnX83GX3n/oGh6whnNPixLAWxga0NDsVqbOfQ7ktsASGCA+ZB78em5btb+XgI2wDWNzB99b5/ZVIqsuUmQoz80vvKXOm9Sg+hABXzNp247OLGp1ZeG+ZXfB1YHVueZuBqXn1Tc6rZ2JenWNz6rDSMzGnCVu3EaFfiJekLs3N2JclY5a09zELDUwAi7PobYLkPbI89iU2JV3xGXlKzi9VdsVW1ew6qP3H7tOR++7XgSP3aPf+Q9q174B27d2vLTt2K6+sSgmZ+Z4ZQJIkBX+mrbtPrV29xjwhc2t9wv3mmSl20MzArVVldr+LnmHw9rmrulTfognMvtlpB8vi5IjXmT+QnzO5bbB4y7/88FF6FOBWzBL2Yzu2v6WDT1vvZtj7t5mcW3Klbh+dfU9BwQdN6QEOptWYAaN1ZFaNQ+8vbAdgpqZn1T04quudg7rcPqBLbf0619StM9fbdKWhTb2dnZof6vEy19eu2e4mzXY1RkpHg2barmq66fy7pf6sZpouaq6/01A9p7Q1fBYkgAWhju4YaDhWrIEQ5z85QwkZuUo10OSW1ai0dpdqdx/U9v1HtG3fEWOeA8qv2mamW6XiMws9HM2TpPjAsuFRdfUOuNO/ESHIwmTldZVleuDwHmWkp2l0LBI4wBdi/rE5a1AWpsc0P26AmR6PmN0/Z3JbYOGhB8XnOw9+NaWPFrYLzMLnAJjVAHaDWWihZyatEq0Fmpl6TxkbH1dz96AuNHW+p1xqbFdzc5tGOts009uh/vY2Xb3eqAuXr+nChcs6f/6ilwtWOq9f1XjrdY00XlLbhdO6fPKEzp94WxdOWjn+hi689oquv/kTdZ/6qaYuvG7lNU2eeVkTJ3+siRPPe5l853nNnPyR5k784EZZeOc5xV47rpSxHmWlpyg3N/c95hb3DbOwvGtgCcIxmRUGpkm0a0jJNH8hT5kFJcotrlROSZUHBOiniUvPVUxSqoEk8kxneK72fHD8+4dHvN9lo0IPPpOIP3xkr4Gm1Oog1pnqxIVr5r9c8c7ThTljl4kRzQ+Pac4asflR0w3SkTdG6HdN4v65yfLnDQlsQEW2t7frxIkT6urq0t69e7Vt2zZPGY+2v6MFJUBB2tra9NOf/lQFBQU6dOiQysrK3hMhQzjm5cuX1UVHWmK6YtMyHTQLowM3yuxQv8Z6DAzN9ervaPPSx7KlUYPN1zXWek3TnU2asjLS1qCRpmsaarysYQPGcNNVL+Mt1zTX2aCF9uuabbumqbbrmmxv8DJl+8+zzlhEvS2KG2hT/EC7EgdalNBvZbBNiUOdSh7pUsZ4r7ImepU+0e8la3ZI+TEzKkmPDNCiH6G2ttZ8ggxvaCYmJtTY2Kg33nhDe/bs8ZKTk+OmGv5NYKA7Lg5GM9EAD8WeFSn/oSBLs5OaGe5VlzUyb5y6qCuN1ujMzKmipMAnragoZnKi9UukkYxVmt1brwGjvaffmGrMHX5y5ngLWZn5NZqP09xoqoElzZZJZn7btZoqeaH9uMNtyEZk02DBxwAsHR0deueddxw0u3fv1naS2uyBrwUWBLCw/euvv67s7GwdPHjQwRKc/iC9vb26du2aurrNqZw06see7WnWQsf1SOms17wtZ1sva6rBzB5T9Ei5ounmy5ppvqgFW7dk27H9kplLcT2Niu9tUnxfk+L6TPmtxJvSZ9D6Tw8oe2ZImTPDN0rW3IjK7LLK0sxJtWVJcqyqM5O0tTBTNXlW8rO0pSBbdUW52l5epO0VJaotK/KyzcyOnbU12rV9q3ZYvezYscMbh8CqpLk0Nzfrrbfe8jrYuXOnNzTUA/7NXQOLicf8/N+7f4tE7mB68xkWJoY02d+lxuYWT5dp7jDz0xieAWYHd25dHmi2MeF+mLKJJR2jvQNDPkCNXn46TndUV2tpIsMathxrsDI025eohXFDh7mzsebixhiODeM/M8DEWOW83/5Zh6Dwo6OjevPNN/Uf/sN/0KuvvqrPfOYz+sIXvuCtZ3DgV5ORkRG99tpr+pf/8l+qpKREf4dxCfff72ZKtACUH/3oRzpz/oJGJqetwkxboxQoIT5ByWa+JOP/0A8TJQQFEqwlS05MUqI9IIRXI6SYIhIOJTEyWugDYcKFMLtjtGQZoFPtPPzOg8Zkgh1CeNO3tnW0kNGNBNtS+I19qRMKvyHDw8M6fvy4/u2//bf64he/qCeffFKlpaUOmKKiohvb3Q2ZX5z3smAAmCMaZabg/BK+47xizdmOG+nXcHODfvzqcf1ff/4dXW/tMDMxzlNo/t4XPuGvz9uMoG6En7/7k7f0zR/91LMDmFbpq1/4pB7b/6AWeis13V1kvgsTHMWZn2X1ZoSTWiulbbFnmG/1amqw4hF9ILJpsMAqgOXtt9/WH/7hH+qll17S008/rS9/+ctuit0KLLSm/+pf/StXjF//9V/XQw89pPx80unelYGBAV2/ft3NMaIxK2sIf4YWGOW1p7D8a0RIz+caUlPMqU6OmHf0G6C4mAMrARH5PZK6s1I4TgAB++FbBP8iyMrjIeG36GX0dgzFbm1t9QYBZoGZYVrqpLi4eNVj3kycHUzpF5YWHAQ3in0HEKyfXcD/WPTvDpb5RfMF7dqm7X6mY80PtPsz02hhvFstzaf1zRef1/dMsYdHx71z8RMPH/N36R/ZzQj5zQl5Ztea2vTcaye9f6eyuFS/8uQnzWTdoa6mWDP/0pQel6+M5BxvEGMTpPhsA0yVlGKASS6175l2zXevLVlVNg0WIl+ABX/lv/7X/6rnn39ejz76qH7t137NzY2V/ke0hP3+4A/+wE2Or3zlKw4WTJRoAZDj5sCH8f0rBcUGMCsVNwgKzvqg6MhKhY2Wm/0eve5mx9iIoNhMVoEpm5mZ6eYr9QZgAEu0oOhB+VF2FP09wFhe8vvc4lzk80KEPSgBJMwtFjNjTDcTr/mJRU2Pzmh6xMAxtmQ+gh1jEqd6WiMTrbrScVyvnDmuhrZOT4Eh7PvZpx7Ulz7+iH2OjMjcjKByo+OTutrcrpa2ASUt5Whn4WE1N0zoncuXrE5mVZBertr8XarMqVV2aq7iEuIcIMklBhoDTGq1NZbGOB8kYDYNFhx8lB5/5Y//+I/1gx/8QPfee69+4zd+w1vIm4FlbGxMJ0+edPMDhQdgq4GFS4suq8mtFPdOKfbdEjd/llOEAD31kZqequz8bFdy7juAwYGwzAgs+f3GdwMIy7AtL6xl6X6ItTNLsMZUjEYHRzU5NKOZoTlNDUxrfGBCY6NjmjLlnZyY1OzUrAHDwDLVo7bhenUOdHu+WKJd230HduuLn3hETz94RAU5t35Fw81kYd4AMzyvgR4zR7sT1dc9r5dOv6p3mt7WxMyYclMLVZe/W7tLjmh70V6VZlUpLTldielxSrJ2xM0yIzdMtA8KMJsGCy09YDl9+rT+7M/+TN/5zne0b98+/dZv/ZYvVzrr0QJbnD17Vv/5P/9n/469DtBW+iw/K0GBV/YZcb8odTTDsS50qIbtgvJH/7aWAGJYD/8HVoEF3QEyC3YxdVEzC5Gw8ow53Ci9s4X7FcvMsvxbNLvcOKctYhfitDBt1ziyoNmBBU10T6u7rVu9vT3q7+/T6NCopsYMJDOTZhpN23XP2um5gBhNzU1oaKpP0/Y7xyzOKdazD0Ze631ob7WSU4mmbSKma9e1uBBv15WkqaFEu55FXb7SrdcuntBPrvxI7UPNdt/TSopLVl5aoapyt2lv6REdKn/QmGaHctMLlJJufmdhjNK3G2B2GMPk2L2ublzcUdk0WHhggAWl//rXv66/+qu/0tatW/XVr35VBw4ciPgRawhRoIaGBn33u9/1lvSJJ55w041w6XrkVpfMeq6PErblc1D01dazju8IAID9MP/Cej4DcgIbQdiH3zCl2I4CUG5mOiKABBZJTklWTnaORxCps7T0NC3GLGrc/gaWBpw1AARLzDD+bsjyx/f8hiyZui/ie9g9j8RovGNKvU396mzqVFtri/p6etU/2quhCYAwpbiYeCXFm/JZSUvKUFZyrtKTsgyg02ofblT3aLsDc2fpHn3ugWf1zH33q7bOzMWMGcUlzpmWLhpo7BrsumNiWC5fR5Qs2TWJa1qI1SKh4fEUY7RkdbXNeF7aa5de1/HGV4zJGh30kTuK/J8Ql6SSzArtKz2m+2qeMOAcVUlWpfuqSfmxSt8pZeyy7ayddcDcRSNi02BhN8By/vx5B8rXvvY1lZeX63d/93e934To0lqCQhEJImyK0lRUVKzZNxOUcGWJXhc+B2VnSR8GJQACgKLEKDBgQMH5LezHOr6znsK+ASwoN/4TvwWw8BvrAjDCubm3sC+fOVa4hgASTFSCGTU1Ndq5e6cDZc/ePUpKS5IZSBpeGNbgPFM8bECoBlPKWFPGuNFkTbbPqu1qm+ovXVdDfb3aeprUMdxi7DOv2Biz/81rTk/MUFFmuZk7u1Ses0U5qfnKSckz0GRqdHpIp9pe00/rf6C+8R6VZVfrwa2P6dE9j2lv7TblFyQ6YBJS5xSfPKvYJCsJBp5owPijiTGAGJNMJWt+MkWzYykaG4hVY0u/Tlx9R2/Uv6xznSfsHN0GXDNBE9P92uYWZx2w82ZecpzUxDTtKDqgB2uf1v1bnnITLTUpVQlZscrcHwFMolnxBAPultwWWGh96TT83ve+534LpsTf//t/X8eOHXsfWNgepQklKE8ofI8uCIqGUqN4KDiKiiKihAjnDwrPb4ODg34s9otu8RGOEcDCtuG4YX04FsrMtWMShXUh4hYiZUHpMZ9Ysh0l3Bu/AS6uh76ioaEhPxdOPP1J1TXVHl7fUrdFFbUVSstO01KcmUsxdo+L5nAvTWt2aQPJinaZgCRm3Oy3ngR1Xe7VlXOXdf7aKTV2XTMWGTBnPxJah0FoqWvydmhL3nZVm5lTV2Bgya5RckKq4kiNsb/x2TFd7zuv5y59Q682PKfByT4DU552FO+z1v2waou2qaak3BMk0zPilZi8YIpqzyV+UbGJkWtfnDXNNUZZnIvX3GSSJsakrp5hXWg9r9Otx3W24221Dta7yQeA89OLtL/0HhXb9Y3NjKih/4paBq9pbHrYQG71GhtnDn+d7q1+XI9ufVYHy+9zNkzIMcAYWDL22P2ZP0N/zN2QTYMFQfnoC3nuuec8fEyL+Q//4T90/wMF49AoJwVFJGTMEkUEWLAJitvT0+MRIZgKULANv6N4KDUgQflY8j2ALbABnymsR1ERzslvfA+KzvfQ1wGL8R3fisJnjss6zEGWQbgXABSOjXA8tuM4AXyAg3A3wADUsCdLkooyMzJVXFasssoylVeXK6cgR8lme8ckWctrpsyM2U1WU5HrsD+7o+Uz3VwwueKmE7TQF6uRhgm1XmjX2YundK3tgnpHujQ1O2HHjLTM5dlbtK1wj7YWWLFlhX3PTsl1kAAiFDbIgpleo6akV3vP6YWr39Y7ra+qZ7zTgZSVnGemULlqCupUkVutspwKZaZkmclk+xvo44xl/BgzOF/Mg23MPT2hruFOtfQ36lLXGbUONWhkatDNLhS+3JjrcMWDOlb1qMqyqjVpAGrov6TznSd1seukmYRN5viPWr3HqSijTPvL79WT2z7jwMlg7rR88/3MJEs30Dhg3m+k3LbcNliampq8j4XIFgr6j//xP3awAByUhlYVEKA4AAHFzMuzyi4pcbDQop87d04XLlxQX1+fgwLFQwE5Bq14AAcKisLyWyh853cKxw7rEX4DmCh7CCGzDeABDKz3zshlMLFf2IdlkAASrol75Hq47gBePnN/XD+AQQESEiPDENIy0zyyVVBS4MvUzFQlppGfZUoUAzwiESuWGxJ7ajGLZnJNJGmuY0ndl/p02djkwpXTau6p1/CksYkpfHJ8igozSh0g+8ru0Z6Sw84smFzB5FlLAMy4tfCXe87oROtPTXFPGBOYkpuJRl2lJKQZcHKMCcrd10mIiwQoYuKWHX/zUfBXFpcWnCm6Rto0MNljTDFiTDdrAE1RQXqJtuTvNJ/kqA5W3O/MkWE+E9c+MjWg9pFmXTDAnG5/3YB7Xr1jnR7IwPnfW3JUn9z9Kzpk++VlFSi1OF7p5vBn7DYfJt+u4w77L7cFFlpNcrzojf/X//pfu9Lgs5DjBDBgEsCCcqFkmCH0H1AACmBgm4sXL6re7GoUju3YF3EnzrZBcSkoOKZP8G1Q9NDisx7ljPZ7eKB8D0DhO59X+87ntQRAwH6YVACEbfv7+/1+R8dGfT3XDEhi4mKUmpGqnLwc5RbkKjM/080sQBKXZGxmzrBDxB44DLIpcaAYo4wla641Ru3nO3Xu9BmduXpSrf31mpwdd3Mqy1iDfoo9JUe81d5auFfF1irDJHTQrkdIpx+zFr3NmOBK71ld6T6r5sGr6jGlHZrs15wrfbIBJdFZB+BT/CLte5g5Bx8ElmNdenKW8lILPRxca0DZWXxA2wr2GltVOIDCtbHt9Nyk+TNdutD1jk60vKIzHW95IGDW/BkAerjyIX16z1d0oPwe5eVYA1BmDGPmWMZeIzkCsncQMLcFFpSku7vbe/F///d/35XpU5/6lDv6sAosgYKTugGb0I+CYxsSCRG2C4oXQIIEcEQzB58BBJ9RWNZTogFypwU2AcinTp3yhgFwAmJA4oxgAGHQFADJzM5UVl6Wg4OSnGHgNYAQ4Zq3P7Zfr3l1M4mxFjt2MlHzjXFqO92l06dP6My142oZMCVamFFibKLyM0rM5NqrQ+X3e8tbaw4xLHCzRuFmwnGHzG/pGG42P+K6Aabeo2UDE73uU0yYj4NDTufnjCk49+rPyDQ20cCUGJ+kNGMyrqEw0/w285W2mN9UlbvVfZSslBxz8Fd/jtTZ4IQxpzHcG40/1vGWn6h54Kr5OpPKTM7Wk9s/YwzzZe0pPaLsnCylVMco934puczq6g76LxsCy40HvbyYnJp0G/38ufP6X//X/9WTIwkBB+YoLCz0iA/g4TMtePTpwue1loANVgIkdxsUawlA/v73v6+XX37Zz//www+ruKTYlT8hKUHxyXZtqYlKyUzxaBYm1nyMrV0yk+122GMNiVk0ZZ+K11JHgtpe79bxE2/obP3bHumKtPIpZtOXmknzgO6pesxDrmXZVa6wtPy3K5hPmFR9E93qH+tWr/kxmEZEs4igTcyMa3iq36NYMESmgYNQNH4JJhf+SJGBBdON72mJ1nCuk+XGZ8Z0zXyoV+p/oJ9c/54aBy57WB2z8lkzx57Z9UVtK96r1LxEZR2Qso6aCc3bke4Qu6wLLICEzWgtvHW0zxRYgd7fpoYm/ft//+/dVKmsrPR+g7q6Ov8MowRhH8ysYPdTYBOWwR8IZhhLfCIAQzAAdrqraetrCImif/RHf6QrV644UP7RP/5HbmKNzI9oamlKs2Ze8IeNPbdk171R32MjYk8qdiZeCz1x6j0+op+8+ILeqX9TvaOdHu3CvAIY91Y/qUfrPqEdRfvdN8Eku1uCyTc8PeDOOsqM2QSY8HcAQaqBIdV8G/wboml5aUX2mYm6N/ccYS/MwR9e/Et9/+JfqN9AS73Aop/b/1v6+O4vqTivxFml4Clz9otMye9QONnBgikRQEBL6MvwfRkgrgykVCyYUtv2fF+Ytf1mFjU+NK6333zbFRtTC4BgrqDYARSAARAAMCJY2P4Agu/8zr6UsA3rMc3wi+iHOXr0qLPWzTo777Rw/0T5/uZv/sbNv89//vP60pe/5NGt9tl2TSxOaM7+2C6wbljeceGw87Ga7zO2Ozuq488f15sXfqLekU6z32eUnJhmJk2dHtzylB6pe1a1ZuLQqsf7+JQ7aLivkIh+LDd+tuT+g+5wVkABaFhiZhHNWi+TrCYcd2xmWBe7Tumvz/2JXrz61x45o6G4v+ZJfeHA39VD2z6u5Jw45ZgpRv9LPAnMd0AcLKPTo2ZzTrwLArtplv45/Ba9xMSwZdxinJIXzR6dT9TI4IjmZuecaRwA83OamZ7R+MS4AwwQ8N0BYesW5pdbYFMCr2CrbD5TwwBrcWFRE+ORwVE4+aTwP/PMM27Obdbu3ojwULhmhvu88sor3nFI3tuxe475/TfNNGlycfLuMkm0mPm1MGxAuTSicy9e0GtvvaT2wWZvaRPjkjyKRA839jutLKYP/RJ3Eyg/K0H3MPXeaXtN/+3N/92Y5pw7/AQzPmHm2FeO/j+Un1vgkTEAk1RotXAHLHgf/NVpNE4ZnhrW0NSQ0ery0r5TRqZGDM1jXiYMxZOzk+ZcmQkyz2Tdyz3TSfFuhrR1tqmrr0tDo0MaHB1U/7A571Njvj2AxJ7H6U1ITlBiSqJHiQivpmeb82fOMRGk3MJc9wvycvPU29PrjjXn2LJliwcIPihTDAYk5w1fDLCQVU1ED/aFVQA5rWQoXONdA/J0rMbbplV/olHH33pDjT1XHSiEfkn/OFTxoB6qfUa7Sw5HnGU3vX7xgIJQ1/hg6UmZZvqNescmAQZMUXwgAgfFGRXu3GOGwSx3omfftW5kekTd5qz1jPWY49angYkBDU1GwDJqFzNudimKjsKTWEdin0c9FmdcaUYWRzS6/Ede00zCjBbTFhWXHafUwlRllGQorypPxXXFKt9Zruo91dpyYIu27N+imn01Xrbss897a1S9t1q1+2q1bf827T24V6Xlpc5GAIaOS8wzWv27LZwDhuPcBBjwm4jikZk7OjyqmClrIMx/SJpPUspiivhLjU1VSow5+jHm6MckKsGM5Xh7Ypgf/BmkTH03ocDGKoxH723o09ULl9XYec3zumLsePQ3EBq+p/ox7So+6KZXdOfiL6rEW2OA//NQ7dPaWrDbI23T81PqGmnVtd4LZpnY8xuX5gas+jY2L+Ca4mCZthbKwWAnC0DA5Aq251rC+mm7kvHFcY0ujmomfkbppekqrC1UUV2RSreVqmpPlYOjaleVanbXqGpnlcq2lql4S7GKaoqUV5GnnNIcZRZlKi03TYkZiYpPMwVLjvNBW4kJiW6i0V9DC4+J90GABSH6RRQONiG6hwDay5cuq6exR8Otw5ronNBMnzUOQ9Y4TMQpfipeCTPGmrOJSpyzYiZq0mKS+COkG0AUDSD+biYxc7Ga6p5V65U2XWu47KFahE5FOhuPVT+qfWXHTHmKjVF+8YESJMHqc1vhPh2pfEj56cWmF4sanOz1KBkBhkUyrgfNbNv4/BqryobsGVrF6D8EUwQfhxKTEONmVGFJoQoKzdEvjPSt5Obket9EWkqako0+45biFLNgR7DCu9CWZu0YU+bsj05rbGBMg12D6mnrUUN9g0fYAAiF3nFa+g9CMKcIJuAjEQoHMAQbrl69qrePv60zJ87o3NvndO74OV14+4Iuv2Mt/tlGtV9qV39Dv0ZbRzXVNaW5/jktjSwpcdpMzvlUpS4a+8BEVpLtLzDRmoDBp5uM0XDLmFrqW9Q52LZs/sV5J96Ryod1oOw+D596D/rfIuEZ0WAcM1atMp8Nk5SIXM9oh7kK5oObXs2PWqNuYDEc3ba4z9I+0u4+yloCMOLtL7SICXZRfKaVpPCwk2KTlBxrDz/WFCHOCksryTHJdrF2pTOG8LEFzYzMaGpoSuN94xrrMWC0D6qvrU/dTd3qaOhQ6/VWtVxtUcOVBl08e1GXLl1SX2+fm0AMKmOsDJG2u+YbLAvHh1lgNJaEwgEOKS34MqwnADA1OeVBjZGhEfX39mt4wPy9gSEN9Ayou71bnS2dPoZkuNd+7xnSxKAx+PCUmQjmu83HKS3e/LUkMyGWpt0XWimxi3Fa7InX1bfqde78O+oebnegZCRneV7UY9ue9V5wQrN/W4V7p6OUfDMiY4TLD1U+4B2g8SlxSi6OpPDfrnXq0bC3Wt8y6uKFZasLdjctIDY54j2t9lzn5+Y9AkYImaXb+Izfnl/wpfsXi0saGhzydZPjkbT4EBWjNWUbWs9ok4/9UcSuzi61tLT4PqTQMBnGI4884ix1t8EShNw3xsmTy0bGMGCBYbgf2I6+IAphblJ3uJ+QL8Z23Cdgy8pmWtQMD1Dk5OYoNy/X2beouEgZWRlqmW9xkxbWuCFLBtjZBM2fTtJ3vvltvXziOfWNdXk/RV3BXv3q4d/1CFhBRok9k7vXl/LzLnSA/uDi1/S1d/6jLnWf1o7iA/oHD/9zZ92MkmRlH4vki91uCHldYIE9MmPMp1hM00D/gMZGxrxFRVl8OWXLCQPB7IzGx8ZdkTxUbIqDUuNzYPsTDkb4jT/MHABCaJjefZZsR7SL3wkbU9ieaNTHPvYxT21n2w9C6AcCAKTxcE1cG0mh3HcABUD2erAl3/lMASjUAdfOfWHGURgNiv8DcLJzst1M5ffG+UZNLk2+FyyLsUoYTdHwS/P6i7/5I715+SXv68KxfbTuk/qVw/+javK2eR/D32ZBV852vKk/Pv7/1cvXv++JmV+97/+px7d9RpmFqco8KGXuNT1+73woG5Z1gQVTyh614sfjde7MOV25fMXTXFAOlAZW4YJpQVGOkNXLbyi2K0Z2tv/GupDwGDouA1hYT2EdgjONU893wsbMq4VicY7bldBRGoAdMgeigQ4rwBpB8SncM9tE+07cA9cYQtpcH8fj/vnM79wfJdwbQj3gD5WVlWogfkAzsbOeR8bfErc4bwDtzNTV7zTrGy/8ic62v+0+HxM5fPHg73ifSnZqnodS/7ZL50iL/uub/7u+fe6PVZ5Vo68c/ft6ds+vKTMv3RMrMw9YfZcub7xJWR9YzBfJXMwU72c+/tZxn2wCJcbUoEVFcVByWkxaSlJTCLWGpENMD0r4jpKgRIRkgzJFlwAGWnHOwW8AjsI+6xEUNQCAZQBG+Mw1B2ZwwC+Dgd/5DkjYlu/hugAYx+UaWAJyPocCEChcP9uG43GcUDg2zDM/N+tTmhZYvVRvqVFMhvmCaQaolATFJBmgTP+ZjTH2eoae//qP9dzxvzabvF65qQU+5uPv3vv/8jEpZPx+JPIIIczy5yf/T5/s4ouHf8d78zOzM3ycftYh+VRKtyPrBkvWUpbiR+N17eo1z8Il2xh2wQHGVEEBAzDCwC4K3wEPIELZAUpoYUNrHMCxUlA4ChK2C9uGdaEEcIQligoQABxLlJ8lJZhNKC6FfbiWoPB8Z/9oBgzA4Nr5HITtgunlILB64NiAJHxH/Nh+D1bpZmolGRiS4iMp7HHJqUpMTVF2bray8vOUlpNhoEly5366PlZ/8sf/TScuva6J2XFV527VMzu/qN849g+UlpT1EassCzlpf37y/9Kfnfx3SoxL0RcO/rZ+5dD/qIxMA0udgeWIfHk7sn5mWcpU3Gicrl2+5iHcoKBBWRiLgmIGZ5dWG8UObEO+GCDCZg92O79hVqFIyFqgQThXtATl51ycl+sAuChpWMc1BB8jMEQQzolJSAHEAIJETZawJNsCFI5L4VgUjsM5+Y3zYKIBOAAajsu1hmMDOJY0JOlW8jLNv5ifUayVxJgFLc7Pqm9oxMqoRiZmNR+XIN7nnmd1lJOVq6nhef3J//0namxt8KjPofIH9OVDv6NHtj77EVCihNlpvnX2j/R/v/N/um5+6dDfM8B8Vemp9my3SNlH5ekvtyMbAkvMUIxOv3PaZ4mETVBulAAQoPShdUZ5UFK2CaYOSoXSsg8KiQ9DKDYAhuOgtIAIBUNZUcyg9JTABChpOHY4T2AY9kNxUXiOw5LjsgxgCD5SAA/KHQDFknOGEoDPugAIzsMxOGYABIXjB/ZkyXe24zxMHZueEKPkpSldvXJF9Y1NfvykhHilGYvQFkxOz6p/ZFyd/UMaGptQuh1jyZz8U2fOamR0xIfT4qf8xrF/6HlQH8m7Qmc6EbGvn/pPPqb/N479z/r47i973x4T8jlYdi1vvElZF1joU0mPSVfybLJ62nvU3tyuns4eN8NQ3GDKoIiwBkBAWQAAykQrHMano9goIIqCiYLiIYCMfQAe+6FgKC6Kyjn4zDkogYFQeBSWJQWgoZwUFDaYVGyDsnMdnJPr5XjRwOAcrAMQFM7vx4g1BU9McIVOSebYBozUNCUk273Z/QJ07jHRlJ4Sn2CsFBcx17gnjsP12pUobmpIzfVX9NpbJ3W9uU3xcZE3+TJhHf7LDC9BnZn19zbyDpTu/mG1djFUedg71eoKduvTe79i5sXvKiXxb2+/ymrC4LSXrn5H3zjzXzQ8Naj/4f5/oofrPuHPJsV8lZxjHxBY6A/xzkf7W5xe1Oy4tfhj1uoOjmmwb1B9PX3ecQgIUEqEVhVfBfZAoUJLjAKhpAAnmG7sx28oM+BBWVFytqWgbCifK6UdA1AFgPCdgrAd+6P0FI4Z+jpYhqgW6zh+YBZAhe+QkpSgVANEfLyZYLauoqTIX8LDtjmZacpKS7UWbMHs4CwtJmcpJsEYys6dZIqeoAXFW1k002g+NlGLBg+7ID8+/8eQ4TDWo6sXz+vk2Qv+7kYk1xzQovwclRbk+evnRsYmDSzm8xhw5u1cr5w4p87eAcXHJPnQ4M8f+G09vePzduiPTLBoYVDa600v6Ntn/9gHo/2jx/6FDpTd6ylTHyhYEPpFQj6Tqan36MfMxmjW7OzJ4Unvte5q71JXR5enqNDfgvKiyAAlEiItcwCh7KyjoIhBmWEdGAgA8RstezBzAtBQcJYoPNuwBACwQ/BPgk8RWCKwF+djX46XaiDIxGwyACC8JLQo1/wo8ylmjXm6+/p1bM825edk6sL1ZjeXCm09r8eONb+irHa7ZuNSDRQGrHkz4cYGNdzf46+izios12JCZF2QWPuWNjes/vYmXWuIvJuRd8zPGSi4px015SoylmEmlK4+3q41qerSIn3jRz/VqYvXFL+Urse3fUq/fOCrOlB+3/JRP5Ig5IKdaX9T37vw5+oYadH/8rH/n8+FlpBovqmZYTl3wAxbV7pLEPMKfPwGA56s3dNi/KKHOzPyrHUsMxYpLlRZeVlk5pZsa3ntD8UNkTNmw6fvhO8oNYobImYEAcIM8iwpwcQJ4AAMgIledXr2Vxaykulhh7EAEgALvlFVVZXPmMkozh3bt2n3tq3aubVGu+sqlZ5s92ClsihHNcW51hQsqqG5WRUFWaoszNap85fV1Nqm+dkZO/aIzl2+ptqKYjfFuMeZ8SE1Xbukl159XaN27gLzwxLMVub1dEHYLi81Vimxi5qcmvC3ZzFJ98TktJrauw04Ez4HF2/Fys2y+7Zr53XYlxxYvUqJyxRp+EerHvFx579I8p6O2PcJ694tSzFrFHtm47OjPrnFwtKcnt71BSXFJSkmPvLKCkZOfiCdkrcSzLSQK0aOWMJSguYm5jTSNxLJkerq9tLa0uqpIwAIMw2QwDiBbWCZ4KPANHwOPkUoMAb7Y4LhIwEoAMZnShilGdZxXM5F4TdMroQYc9CXZhU3a+xnjmFbe7suX280vyFWW8pL/B0tb5y+aAwSq089eq+On7ui109dNCXO0MGdtfrLH76iZ598UPsOHTMmyVB7S5NeevFFfeO5nxiISvQrn/8l7Tp4TClZxhRL75pihYmz6mqp109eO67Tl645UGCVDjNjB0fHtK26XM/a+R49us/fGjw0Oq7f+zf/RSfOXVWB2RK/cuR/0uf3/7anu9yuUNcRBbQr83+R67x7gkK/V/hlyZ6FL2mK7XOQG7/Z/xGJXr/iSG6hLKpvrFvn2t9W51Crfufe3zM2jldcSozSt8Uo67BZDzXL229S7ghYglDh/JFLFsZ0JC5ZWUzUWP+Ymq2VPHPmjM+8z+R8AAKlDwEBzCQYJ4ACVkHBUXTWU0LUjN/C58BAbEuAASby67HjrVzyidY9aW5Mo73txhitKjDzamhkQleaWt1X2b99i7+h6k+/88LyjPHZ+u7Lb5nDPahf//ST/g73y01t+uwnnvTJOM5dvKpvfe85vXHmovKMFT73yaf08Y9/QvmlVZqNAktqnPlRQz366atv6PlX3tDl+ibNGmPis2TZ/fQODqmyuECfeeIBffzhY8Y+0/rN3/vf1Nrer20FB/SVo//AZzG5XcFkYRgGIw6pEwaKkRlwNyQoPa1/RPUjnwEJVsps7IxmYo1lY82UjZkyQDA02XwQZjaw73PWqAGRRbNmpm27+RhmAHoXVC6x9lztPhbnFzU8NKSZoVk9Wf5ZZc8XKjUjSTn74pS1L9YHgt2O3FGwBAmgoR8AlsmaM5NsJkZtzW165+Q7PnUSYMFc4iZR/NAPw2cUnyUgABDRYAEQLAEZLOHOuSl4KHwP4FhLkgwsifOTGu5q0Y9fed2YJE4HdtSqb3BEVxpblZaSrIetdX/xrdOamZnVE/cd1LWWDr15+pJvd2zfDv27P/1rlZcUqaqiVPW27kevvOkvJyVy9vHHH9IXPvcZlVbVaXrp3fSWOFOShMVZdbe3+BzRJ0+f1UVjtHi7bvyTGF7AZPd10M7x+L0HNTYxqb/7T/9AE+Pzuq/mKX3p0P+gB7d8bPloGxfYJDJAqsUzdIkakQHA/F1MuH27/TY32ID+IwoqHmNKHzdlim5WQtyEf5+OHddU7ITBYdrndp7RpBU+M4USGRaLmpkzS2J2wgcbzs+Y2b8456ACLIAtWhilm2AlOTnFGugkJc2mqiZtp0oWqlWRUama/eYi7EhXcta7EzBuRu4KWKKFsSu5k7mKnTNzo71Dly5e8rR7JgXHd4FBAAUzwVRXV7u/AzsEcwpQwBSUABCWt3PThHET8bxGevXSyz/R+SvXde/+nSotzPP3sl811njoyD5r7VP17Rded7Bggr1uYOkxdvlffudX9ZdmcvEed16VN2YM2d7d58ECIln3HNynL33+s6qo22kK8N70HACzODul0YFeNTbU6+QpY9pzl9wELLPzb6+u8PfFV5YW6szlev2zf/cniltM1tM7f1mfO/BbPhfwZoSsbt57wswojF2/1nPOp2clY5nhyE/v+IIxzLvAXo84NGLmfWZNeIIh4yj0VNyYJq0AiEnZ55jx5eWYAWRGE0sjGpsfcUDQGM3OLE9aMjPjGefzM5Fs9jnzOynz0+Yf+7nsPAYmQB8t/qIjc+QTU5P8VYcpqWnKy81XUUa5tuTWadeObdpaV61CJuFLXP8EgytlQw7+ZiR2KVaphnSrSx+Sy43CFMGJx98ITj3MwhKghM5KtgU0RLACWG4HKAjzjhAqNt9PizNTOmsO+6SZf8VmDuGn1Ld2uAP+4KE9Onnxmp+vuqzIzJZFnbxwTfcf3K1MAxLm2DUz3Xh/fklBrnbUVGhwZFz5Zrbt3rFd2Xn5pkjvVUDOzRuCE5KWH2xikgbMdGhu6zTzc9r2zXLHnj6bn544pzNXGsxRTfWpTWn9yQ3bjNBRd7n7tF649td6o/EFXe+74FMWMSyZifgqcrbYfd5MiZwzHBjzsabIMcYFxhSj8UMaTOhRX0KHeuJb1BHfqLa4a2qOvaLGhYtqmr+kpsnLahq95mNO2oYa1drbqM6eVnX3dqq3p0t9PT0a7O3XYF+/hqwxGhka1jjdCZ7RbqaYAcrNMwP8/Oy8g2dhxoy42UiZGZ3R1MiUJvrHNdo3qvGRUY2OM3fEgMZihjWVOK6FhDnXnaQEcw/iEjcFmA8ELGmzaW5P0heD004oGWDg3OPkB7OKMG/opacQ0QphXwSlvV2gRAuAyUiM0bX6Rg/l5hh75GRmmGM95q+efvrBo/6y0Blr5arLir0P5vSl66oqLdZ2A8ZVMyu7+gZ9P9iA11NfvN6sYmOIfbt3Kiuv0GzvuBt9RyHczRt6CRuPjU9q2u5zbGREV+0a+k1JOBem2Jxt+8qJs+b89ystMUtHKx/R7uJDythEJAzfpH+8W9+/9HWfoK5p4KorHlMnMXafwmwwK+s2mFUABN8CM2o83pQwvl8Dcd3qiWtTR1yDWuOuqnHxournLqph6qIaRw0cg1fU3GfgMGB0dBswOjrU29Gt/q5eM3+HNDE0oZmxGc1NzbluIDRUmFRMVJiSlaLk7GSlZJsvmpeqzBJrOAvMROf3zGSl5qQqNTdSmOiQwtS5drlanOP1f9Ma7hk21ofFRo3ZJrUQt2B1m2j1meajSjcKmA+MWebM7rx85bKu11/3wWAwTPBDYBb8FB4WDj79LaHDMjj7KBsSABPK5iXCLtkp8eq0B3m5vtlanlgP39Lngv/y2D0HlJYaSb0pN8c73Riu1R426/cbOMYmptzPIIrFu+FnDAhEzWrMj9m9c4fSsrI1aS0f90SEj9w1QtuEuDFD6xsa1djcqv6BAe/XWbA6GRmbsHMPq3dgWJcaWjVpbMOcvvdvedLnBN7M2BWSDGGSr7/zn9Q8eM17u0nIfKTuk3ps66ccNNGsEkAyj38RN6nxuGFjj171xhs4jDlaYw0cSxd1ffas6qcuqGHMyoAxSM9VtXQ0qL25RZ317epv6dNIx4iPip0aNid+0ho/Awb1yeydyTnJSi9MV1aZWRblZmlUmXVRadaFfc4qz1JmaaYyijMcKFmlWUovSldafpoyikxnbJ/MssxIKc58dx/7DJgwO8e6x3w07oTVKdNWzcbPSglSZooBLynd51TbiA7dfZ9lMU45kzmanpjWmXfO6MqlK640jKDEtMLUgmFgGvwSWl4UKxRAhRkWzDOYKDj+bH87oIk3/yE/fkZvvv6q/uyvnzMGWNBjx/Zrt9m3je1d+qUnHvDoGG/qxeyatVb/zTOXHSAfu/+w2sxPoXc9KSnBB7Z9/5Xj+voPfqLH7zuip556TNmF5WYKRBIuAT99TaEfKDrfzM0bs8UT7TgDbo4MmsYueeoLrFSTt13/8yP/bz2+7Zc2lZLfNdrq71n5j6/9S5+gjhb1U3u+oi8f/l2fGSbaVwEmC+Z74G+MxQ9qOKFPg/FmZsV0qn+uS0Mzdv2Tgxoa69eINXowBK24s8SkmWfT5ozjY9h1O0swtS3sYAyQkmNmZ56VTHPEjT3iraFiSiyGJeB3UK9LC3b+uWUTy/wXrgeJN7OU9ZTYhNjI9qs8dx9lOzGnib4JdZ3v8gJ75VTnqOaeGu08tFMP7HhAD1Q/oJLMEiXGv/tqkVvJXWcW7tXbqdhFJaclKzc/14fVYooxwnJoeMjnE2Y0YkiIxE8JkTEABWAIM0fnlmGmYdbQSgXQbFSs3pVs1xUzP6VrjS3eOZhm5zu6Z7t21VaqKDdXGeZX5GRai2bLpMRE5WVnqsTuAd8iKyPNc7tS7V4a2zv1o9dOqsOUPc5arFFrHBrMTLt0+YpH/uhf6uzs9HuYnp12JWF+NN7VsmXXFm3fv111e7cqOTFZo/0j5scMe104q2VV60FzwgHNRu+TMHHjwBX96PI3Vd9/0b/nmN/zzK5f1v01T7yHqXhOsMmwsUh76jXVp53V9aSzapi7oGtD53S97ZIa66+p7WqLuq8ZeBrMx2gZcvaAOWANlDgl1+qsKkeFWwtVvLtYhTsLlb81X7k19uyNOWALAASQUH7AMTc+534H8zNMDk368aZHpj1DZH4iAj7MNI4fGx8bAc4qdeER0cQ4ByMzBXFNE/0TflwkISdB8enxyk/nLWc5HjJfb53efbDYdQCUpfglb0nSciLvK8kvtMrLy/WhtQCH8fzMQBlSXljS6tILj4kWHHxuLKTGAJroFhoHbiMBAMCSEreoNCuXrjfqamObVXaMdtVVaceWSk+exDTjAfi4E2uBU1OSPeqVQNKkgZTfu40J3jh1SS+/fdaAYF6KrZuyJVGyyWl7SGbhpBmw8oryVFZTpprtNQ6Qml01qtxRqYqtFSqtLVVOkbHrfLyGu0fMNOw0U2LJp/upK9ije2se9xf+bFTGpod0ruNtvXTtO967DSD2lB711Bne+BVtfi3EzGkgsVtNqWZiJZ9Rg/kh7ns0ml9yuUVd1zrU39iv4Q5jFFNAcgQRsjgwpwBIfl2+inYWKW9rnvK25EXAYWYT4EhINRvIGk+YZ2bcfCADBMeZ6LViy8kB8+GMpWAVnqGHhK1R8aWxD4XPgAawrCXsi//Cvjw7AgAcnygb7JZclKys1CwHDObYeqOAdx8sJiElAXuRl/hQabz1KiPHHOp8s1Fzs/11DammhNiRKD+Rs9CLTwEMgCU6aZLfWBcNGvwbmMgV3MrNgEN9pxpQMu2QF682mI/Q4ikolcWFboqRZRy9P58BT/wyIClEzc5da9ILb57SlaZ2T/Op2lLl00EVlhWprLpM5bXlKq+zsrU8Aoy6UhVUFCgjP8MVjZ5p2IYZYgY7htXd0qOuLgOLtaaYXbzoh1QXXkq0EQEYRJ/ebH7Bw8X0WzBdEGn+OPX5ae/20hFtGjKTqzHtggOlafay2jqa1HbRQHK5S/1N/RrvGXdlprUmVIvi4Tvk1eWpYGuBswcAwfdwZ9zMLUympfkl91cAB34ExxnvH3cFhj3mp5gPy5SRhFQDBK/qwJEHYMlZyUpMT3SdcaAss8qthGfDthwTM2yyf9JnFuJ4GWXmK6fxPs0iY1mzcuLXfg19tDhYWgZaNDgxaMpjrcytr2NzYsd10MRGCnOMxaXEKSk9SalZqcrMzfTZ6bPMvAE0weHH3IJxAA6OMt8DcAADnzHHKAQDAmiCCQPTsFxVzAkk7SV23vypS9d02cBChApT69DuOmcQrmEt4dydfQN67Z0Lnh08bj5GzdYaHXngsDFHraq2Valim4FjS6nyy/MdHEkZ9mDiZaCc9QBGX5c5/M0darrSpNb6VvU2m0na0WtOf68rO6ktRMI2Ezaem5/Vha6TerX+OY+AYYIRKv70nl/zyFowwegjmYobV3PaJV1NOeVAaW9vUcf5dvVc6tFox6grNX4ZrXVanlkHBggAUrDNii3xCdy8MgCh1GyLDwMgRrtHNd4dmfoKXwLTCgBRt2zr4LD9cN6JfPE5KTPJTSnOh1mF0q9leq0lATBExyYGTIcGrbEw6yarIsuBXJpdqsL0Qo+OrUccLBfqL5iz2uY3iALQMiOcbCMXt25ZBg4tKsCBcUKLwpzHbqYV5XsrTV8E5o6ziLEN5hfAARywCOLmkAECIAV2oXDtgI71gCfswzYAa2LCWrjhfvVYK37y/BXVt3R6QmNGWoruPbDLQbMm0EzoXzl3tcl7+s9db1ZKRqr2Hturww8fVsmWEmUUZnhkBjZlVpax8TH19/T7XGLMj9Z8tVkt11ocJO317RobHtP8+KLGByc1MNxnZ4jxaUkfqP2YdhYd2HDYmBcNvd3yE73V8pJ/5lHi0D+98wuekYv5ASDnYmfUk9yii+nH1bR0SR0dLeo836Hui93OApgvmD609CgaAMHUKtxRqOwKYxEzwVBs9z9mDHjLDDLaOXojGkYAAPMLpafBwOFPK0zzOoKFQgCAxpMwcHD4b7fx5hgEDYLJB4MRNeN8pbmlKssss3rNsNPc+kQOlhdfedHTUDADGKcSZmvxA9jBqVD+8fWOg4dTLJtpi7yLEOAY5cI2mGnMcFlQFBmWnJaa5g84tMr4NphgKD9AQDDTuEbABavg6wAUGCdEpMILX1tbWrwX/dKVazp/tVGd5pxjVuHM37Nvh/foY3atds/UDx2QL751yn2VgdEx5RXnaf+D+1W+rdynn52YmtBg/6C62rrU2tCqpstNarzUqMaLVmzJu+nHh5cjfumpKiwvVGlGpeZHF9XS0+D+EOPsH9/2afcvNjKRHse81nterzf+WBd7TnmnZHxcgr/w52jlo/7iVe4L82ssflgXM98yZ/6M1QGM0uFRJIDioV5rndPz093MKtlboqJdRcqtznUmoJFD8EHwPQDIcNuwg2XSQI//AXvQL+J+TYVZD2a6wUIwlJtZBjTY41bgQB/X+ltLuEfqArAGVsuuzFZaQZqDpTyr3OoiO2JV3UIcLN/97nf18vMvq+16m7pauzTQPaChviGNDo76xHgBPLTQKOBdEe7XioMmNtIRBnDiUuPcfmWGfZSxpMweFhPTmc3JDQIUQtFEmgjLBnZBAAzriESR1s/Uq7yUiMKkG6T14xvAMIxTGTFzjwFYDPjau61atZWl3pO+FlgwwQgXv33uijFkjPKL87V1/1Y/P+zRdKlJ189e96ldL5245N/JwqbPibeG8cZi/Jm6PXXafXS3th3YpsL4Cg21jOhK2zk/b6Y9yI/v/qL3hfDexvXK3MKM+Sov6c2mF/2tYHbF/o7JXzn8P2lL/g4zwVK8EaQfpSOlXqeyXlLfbJfaL7Sp80ynKz3mC8xKK1y8t1hlB8tUsL0gwiREssyJnh2b1UjXiPqv92ugccBZhGwN2AEwoZgACwaiD4TffD5r/I81GqLVxDxQH0PFeKqwjP5DvFFfQ2C18V6zJOz6CDrQh1OcW6zy7HIzb3N9ovFbiYPlcvNl9Y32ORAAxsjAiLqau9RWb+CxZV9nnwa7BzXUP6Rxa02nJ6e9Vxhl3cgNb0iWgRN8HMbOxCbHOk3zvkZMtaLSIgcOfTAJ8ZFIGX0agCawR5hRkvB0MN/wd+gMLSjIU40dY7/5FvH24OlPGbXGITk5UdtqKrTXnPxkc/Jp4RF614fs/mGfpMQkdZoN/vJbZ8zXabZWMdbfUMw14H9cO3NNzZeb1d/d7ykaiXZMol3lW8pVu7tW2w9u97Jl9xb/raCsQFm5WZppW1DDuUZd67zoLFqYXqKP7/qSSrMq7TrW31B1jrTq1YYf6lzn2xqZJmEyRTvMlPvU3l/1SbTJNKY/ZSChS+cyX1Nb4lUNGpDbTra50uMU82zpRS/ZV+JAwS9xs9KYhnAvgOq53KPuC93OKjj9KGFebV6k03C51519YCAP+1o93UpfYAoAwVzQqfZn7rhP8phlf8lzdqyZBC9Jc0lKt7/MWANhjLGU/bEf/Vb8BYGxuJ9gGnrHp4G4LLdMlTmVKkgvWNc80Q6W1qFWLSQvqLiq2Fs7/ARsS8yXmakZjQ6NutPZ2diprpYu9Xf1R5jHfnfwTBh45hf8orwyoNM7KICG8Kv7N9YAxCRaZZqjlpKREnmviykZoWhnnPQMT2kIQliaTkwGgJFOzyCwquoqVdZUqqqmXFvN+d5dXaIEu+aevkFPw6fRqKsoMSd/m1KSEh1ApMNcuN7kveoQV15Clfq6Y/XG6fOq72jyVo2OVqatpT6Q9Mx0FZbZeesiAKndW6uanTWCTahrmJJtYKmJkQmv1+Yzrbp24arPaZwQl6Sa3G0evcpPK153o8TxTne8aSbYC+7Yk2nMqyg4DnOOpScxHCLWnfq2FDNBM17X6MKQui93q/u8KT62vQnmEdGtiqMV3keC0qMXAGWsa0zt70QCAESzYBuiYoSP8UXwPx0gZl6FCJZf/01uAYZIsT8Hh/1lzJvPN2ngHDYnfXBRU71THmwYaTc/qGtckz2Tmh2Y1cKwmdxTtu9iitLizFS3a5yyv8A0nJdgA0AZ7YqAhessyStxsBSmFa6rc9LB8s75d9Te064Uc2zTsiKtNg+Zh5mRbcpnCoPgHKMIOKKwTXdLt3pae7z1hI144KQW0NlIa4p4z+s6H/ItxQ5zAzhxyxE18w0ILaZmp7qplpkTiarlF0QGllWUV6iyulIVVRUqqTQTrrxIeaV5yi7MVobZ4TlmN5fYPacaQEaMWUg3gU1qK0pVZazTOzis8wYSBoO9c6HBGol5FadsU4H2aLQ3RaevX1ST+RcEK+hELbH9iquLVbW9ylkDcFRurXT2KKoo8qgfJhi2PA0NAGlvaFfjBWOTs9d0/dw1Y8RWfwUIbEDU6oEtT/nMk+sRgDI5N65Xrv9Ap9te874VewA+y/7n9/+WqvO2+ZvCqMuBxC5dyzilpuTLmpqYVOvxVg02Dbpdz3PD+S49UOo+CqYwYWCCQPgiOP8dpzvc+aeVxtnPrcp1J937N7A4AkBuIrAIw9TT7A+QZC9lK3U61WcSmuye1FDbkHobe33ieBprdG6oOzLB+vigsfyAPbO+EU+gjJ2NNVMzS2npaRq0vwAWhHsCaM4s5jfBkphhgKUovWhd4WMHy49f/LG/RgEfZWZyxltWQIPiAZzcInOyS83JBjzmdFOR2N08bF6PN9w37ICBdXhVxGCPOd5D5uAt+ztMBA54eJAwz80iTOuWZeA4eJbZBuCE/ht6xxnmDNvQGUjYlmhOfKbZyql2fl5NmWSAs3Ygwx5sZqI5mXZQ0lvoX2FMy/jUlGcWv3Hqoi5d7dDMSLIq0/dqV/ZDylioMacxUQ1d9WodbNDM4pSKS0p05P6j2nq4zjscYZD8knzvkERx8KeoY2bIwT9sMPBdPXPVfZmOpg71t/Wru8OUYTSS7pKamKbDlQ+KPhZmzV+PkDbTPtSkl65/R1d7CWePekRtZ/FBfXrvr5kzm7dsgs0Zq1zXpYzjGl7q8/Buyxst7gRjUdAAwSaVRyvdGceEQnCUBxoG1Hm600PB+COYaXk1eRHmWd5uvQJQMKUK7S8vJs+BAmt0Xu9U67XWGz40L5BiPm0CDrBAanKqZxDja9BAM/8DDVBBvpmzBVnqWep5L1jwrYyRAAzgBixFuUWqzDawZBata/Cbg+W146/p3LlzflEo+nD/sDMFF4fwsF35SgvdtkYBAA5A4v3vKALAoJWkcByYB+B0t3b7MYn6ABrP9zFzhSXJbrQstD6bZp8o0FDwbRw4SeYImqkWk2IbWD0sJi1qPmE+UuKtxM5rwQMJ5gvZ9STZgZKtkYi36yBdv7WzV+euNvqQ4utNnUqPKdGxiid1f/XTqkjbp7iFVHtwMRoY71WbKefAVI/y8/K19+B+le8sU3pOujvAmLHUZ0djh4MD9qg/W++RMcLH1BGTqyenJnsaypTV49DIoNVHrNKS0o1VPubswntI1iO8Ou+dtlfNBHve5/8laZL5xh6sfdpn3E8yx566Ho8fUUP6eV1NO6WpqUn1Xe5zx55eeViB/g7CwzCLZ/TaPjwzWuaus2aK1/d7hKviWIX32hPVwtzaiPDs8TPy7K8spkxZMVmaGphSw+UG1V+p91d4EPYlsMQcDbyIFzOacU+MfyotLfXxT/S/EayhkS+rKhNvm+uxv2ghWjfcMqzh9mE3wRwsOUWqzq1WcWbx+sHSPdGt+aR5N7mw9yZGJ/ydIjj3ve29rvwwyOyU0bM5cf7Ox8pilVbbxZq9j2lDJCivJM8pEEDTEnQ1danxcqObahyP0tsWOd64mTzY9zyEwDS0BAE8mxJ2WwYP0bSF2AXNxxkwrPCZ4sEC/gyotKBzC/M+k0qvObftprjXm9p0zh4W41iut3RqYHjE7OBcPVL7KX1y16+qOnunEmNN4cwW5Dp59zyziTT0X9K8makJ1toRgJgYH1d7Y5uDg2iYl1OXPWzM/cOyNDaYaFv3bdWOgztUl7dLg71Dau9qsTqJU0ZStvsZIXp1K/FM26khPX/lWz7Tycj0gP/O/rzymnctolDUcU9Si66nn1FnfJN3ODa/3uwtL/4I4CCLF8ag8zE8D7bru9rnYWWUr/xIuYeSiZZtlFEQIlyYX/kx+SqIKfCBgszTwJsTiGQCiJqaGr9mJoXftWuXTxAPSMIspxQioQRxSJ3asmOLYnJjZM328lkiQubBYMug36PnqC2bYRsGy+CCObU5hsqaMlXUVjh75BTmeOyf1gRnnpax5XqLA2igy2jRnHtCpLSIME5pTakqtxvabQmQiiuKlV+a7+ksAHBybNJBQ6SIzjhMNuxPCmzkJqC1wghmHhV0W7IMnJUFVoPhuCdsYFr78+9c0jsnzuuN42d14tQlzxEjMjYH+9n291Q/rqd3fl67rIVn4FDkYKTLREA+NGWO+eB19YyYaTIyakwyqCZjpUt23CunrniHIxHE9Kx0913q9tVp59Gd2nvvXu/E3HFgh7bu2KrE3kx37pu768W0U5kpOT4TPJGw9YSNceSbBq/q+avfUvPANWOZKXPmM7W37Jg+tuNzyjVHNig++V/1aec0shRJY6l/qV7TY9ORbHBzzvO35at0f6mbVggtPP0nAAWFo9+l8t5Kj34RBt5MA0fkChMsNybXl+gTYX36wwDK/v37PdLJDKgBIGSboxuhG4Ny4sQJnzWoorJCdXvrNJUypRH7C0LDND1sYGkedDPMc9Y2CxbeTjyzNBMZmpmS6L4KPkpJVYl3lOGz8FtSSpL7HoSQUXbsbJhisHfQTTaARZAA5sGZRTFoOQkWhIABDi4Tn+Hz4OcQnqbQQYfJhj3f39mvIWthp8btmNbCYM54stvy81jvg6GSKPhNgJFrxvwJrT19Hyh0h517cmJG6Uv5KoyvVqqZA8MTg84ayCd2fSniZJu9T6schOuAFXn/5uBknxr6Lvk0R8MDQ944EC6mHnH26UPZeWSndh/bHWGRnXWqrjFzorRSlYXWyKRVqP3tHp0+fVLtA83uV+SZWfbLB/6um2frSfYbNiZ5q+klvWYmGO9WJL2lPKfG3xB2uOIh94GCNBhQAMzY1IiHinHuYRUYwvsgdltjZ4C54asYk/RdMdP6Uo+n4RftLnJWAViYbZuR4K8AluSlZO9kvnDhgof3AQsBGjqfYRrML1gkdDpHy0svveSdzdu2b1P17moNxg1qwv6C0AAQlBhqGvLwcQAL0bCqnKqNgQWnkFffpSSm+Bhler1hjJT0SGjW/RVTdtgC4BDupE8BcODkwzT4KCg5vg7+C+s8omKmHfvDMphsJBYCQELUHCfZHGl3fq21x7aHuWiJPURtx6MTjwACEbgQMPDw9HKFRTtxAAPTanZ61pkPxups7nQmg0Fo5en/wFfgXJgtvFYcM7JyW5X2V9yjg/kPqiCx3BMQR6eHfJvHtj7ruVnkaUWDBfGJB8kqWJh232VwotcbgpysfO3cs1sHHzioncd2eOi4prbGH3pFaYUqCis8zl+WXaaSrFKlDubq9Rfe1Nvn31D/eI9HrMqyqvS5A7/tDvqtGgiA3TnSrJevf0/nO9+Wv83Y9sGxZxrTWjPFAjtRZ9fSTqs5+bIm7Pl1nbO6vmb+gSkV4WLSWQAC4WA/r1UxSkYEjJfO0iFJvwvmjPe83+La1hLAQt8JYIlfjHdzCrAQ7scvoS+M3+gjw/yCZWCUIDxvgiYvvviiR2p37tmpotoi9dkf02AEIShA4iaRPnLE8mvN4jG/pTSv1EzTLQ6WdUfDAArJZJnJmWYnZ/jnFLORkxMMMMkp7ofwKjdYIbsg26NLtJgoPM6/x96NAWAXwIJDj13O+xVvsINVKKzjPfG2P0EC93vMbONzYC5MG9L1Q/8OTOMmm7EOoOSYBAsAaQAPLSJmDqYVAIOlmq8YQM43eA86fgL9ROyDQgAQgF+zo8Y7BqHu6h3V2lK4QzXJu5Q+l6OmvmvqGG3xztcdRfv9vY0hRSRauF4yeQEMKSWdwy3uZOdk5ml73W7t3bdfdTtqVV5uwMg3YOSUGDjMz8swPy8tX1mJWUpZTFffqQl958ff1tmGE54dDAvUFe7WMzt/2R7krVs9BnVd7jmjn9b/wEDb4KySZiYYb/J9YMvT3rkZzEZmWLmWflptidc13jum1jdbIz3vBgoc9TAGBVAghIsHGwedVTBnYB7AROo9Dd1mhemAs2OylWt/vIgXBmHsD2OZ8FUABo47TMN3+suizXMaRoD0+uuve/Ltzt07lVme6c69earLW8mjZETuYBbS9ekPIiJWkV+hmrwaFWcUL5vXNxcHC2nxgANWSbdWjEJyWaZVNsCBogjXUUhMzMjMiIDGzKqCkgIHDg5+CBDcGJsCcMxEgx0wq1BWzDgUzjsLDXwAhX3xkzD7AM+N/ghjL7YHFCFMjenm5po54xwXQHm/T1dfJL3k3HU1XGzwvguYJQAEkOKT1e6p1fYD292prt5ZLcK7gBcAMc9Z3ESSpvvn1NR93ez+q9Zim3mWlOVjSUqzqxwYKyUy75Y1LlZPAxOMJOw3BVuw+su2fSpUVVitsrwyFWcVKc8Akmu+SEZihhJjDQTTcZpon9drPzyh77/xV2ruve5slmXbHDLT6b7qJ27pr7B992i7TrS84omT9NjDHhU5tbqv5kmf7jXNzheAzswr1w0snbGNHh3CuaeHG9Lk9eqYWLS+bl4ZgAjs9F7pvcE+9NDTrxL8mc0Kb5TL4W8pxy0L/BWyLjC/YGBA0tDQ4JYO3/FXorsdwnrmoisuKtbWXVuVUJDgYIm2OOgLIoo31Dzk90mOG+k3lQWVziw0XOvuwV/+7JVJCwklARJYhsExlGjWYVpM4tuYWSCaqA6AobXGpPEAgbEOIyO9P8aYALB4aNmUHQCh4LABVMpD8cFRhXkOFHq3Oc4N8FQW+TnoHAWI/kZg85t4A/BA74BH7GCTG6FYYzgPPJi5R8fgrqO73E8AIHQS0mnI8WAyHj4sho/BBG19HX0GtDbVd15R23CTmzeMYc8xJa/K3eoAWMkufEeh0xPN2bVK75sws2asW2OjI4qdjjezzszPzAofO5Ecm6JYMzkWzUqYG1vUWOeMmo736us/+FOdrH9dI5ODHgkLr5eA1W6Vt8TrFhr7L3u4+GLXKb9mUmMOGkjuN7Dw3snEKDNjKKFXjann1THf5H0mbSfaDHF2H+YbwhaEjMku5r54PvTo91yMvPefcLx3QG7J9c7HzQrmLC/1hVXSjVlx6jHBSIwNYWHSkwADQ8kJGwOaaLAQEKDLAzbCTKveXq3FrEUN2F+00HtP9jOjOmEZfDHG9FdbI1ZXUOdp+uvxCd8DlpUSUQLzZYx1HDApmcqyVhbW8WLgYV2YWgZWIYIGUFB4HHyPihl70FEIhRKWhgVQaswrlBPzyf0cM6eoREBIS59bnOvh6bItZT4mBGbgczgu7IMZgMPJQ8UHYgTiriO73JHGoQYkAAQW5JhQO/4ULRkmYugDwVS7dOaizp05q0vXz7mTzTvVmdxtYnbMWu8ljyYxtHc15eX+Ce8y5oR9Bo1huobb1d3XaSbpoBZG7L6mU7U4HKeZ4QVN9sxrqGFSTWc69fzzP9J3T31dXSPmZJv5BEORZfy5/b+l/PSiG+bTWjI01ec5YG81v6h2AzitKq+keMjML9Jbok0wpC+x3Zz7S+oYa4owxtVImJUAD6kgJEvSe+9iDTQRJE/X7x33MDFgohd8o/0q0eKRsBjzh+2PHC/mkDt79qzrHP4KAMHhxwzjO+BZ6dzjr7zxxhvu1+w2/5BBdUTCRu0vWui9J5JHPwvsyfgb8ta2FW/T1oKtxvZ5t6xj5KZgiRaUmAtFUXiYbqoZWDDVgskWDR53fA08+CmYbLTy+CgwRzB7UHTAA1PAOiFI4OCxlh6axTlDYBUAx77B1/FiYMKUwv+ARbYd3ObRJ87H6EsUwH0gAwfHDJE8UuSvnrrq0TCc/oZLDWozRhkctFbJKrQopdwn4KYHnJZ6knmR7TqYX2utPC1+S4lPtfqIpHzDSIwj6RxsVVtnq7rc/+pVG+A0n+rCmQv6ydsv6sfn/lotg/Xu68RbC1eeXaOHap/WI+aYJ1pdr3auIJhgzMd1vOVlnW1/y+cCQypz6vRQ3TPm4B+y55Jpv7x7jM6UBrWYc9/e36yeCz3e6iLkcmHPY4KRtoIQMsZ86b7U7b3gKBn+DL36N7uuWwl5YCRHYobFTMd4PwlgwS9hAncmKSEZlqxx3lBN2DjauUcYdoFzDxsdPnxYBTUFGokbeU8kDKGjFaCMtBnTG8ABCylP20u2my9a61nH65F1gwUJgEERoC2A437MMvNEm21pSWlusuEHkaFLoQLoawA87qtYwZfgN/KlUGoUOvg6gIaWH5MNUwn2AGAwFOABiAQesvOy/ZjRAQecUvYh7QbnnvA0AKk/X6/6C/WeEcxvmIX4RZiTmI+VWyvcMScqVpG2VZ1DLRo1BaQPY25hztljy/LrtFdOSkf9YELhnNOhyDbMzzVmgMMsax9oUVtvkxrar+lKy0WdbzqlMy3H1boMFOqy2Mw1Zsp/YvtnVZlbd8sWb2JuzEyvd3S8+SXV0zFqrEZDdbjqIQ8Z84YwABctLalmYiZfVzuDvIzZwmQORMKCiUV2N/WN2UJvPQyEyRrG2dPDfztiHrA791lLWVqYXHBzCzMMBtm2bZubWzAG7AFYmC4r2rknaITp9sILLziIDh89rPTydA3EDLwnEoZ4h2TToJuR6Bk+S2FFoYOFfhZcjPXIhsCyUqKBg7kGo8A6hKBxYIOPk5YQAU1qkpVkK4Amw0DFqEhTdFLXUXSYA6XlhnhQ+DS8c3+kf8RBg4OPww4bEQXj4QXwULkwEYPXfOb+1m4HA1ExTy251uo+Df4N+3Pt5L/RoUpW8JadW7R171Zt37ddO2p3aVfmYZXF1KptoFG9413GLGOeOkIpTC9VgRX8gNVaV/yWNPNfsnHkkxnjnWzWDNOnjmt0aliDY8agoz0eIuYtuxwDFoMNyAV7aMsz2lt6zBqhWyskjv07ra/qVPsb6h3ruHGsR+ue1YGy+9yMW2mP08fSkdSgjpZWdZzqiDj3JjjsxXvMn6vMjvgjOPeTs95rTzSMzkf6KHDwfXj0bQhgyYnJ8bdgTwxPuN/BcAqiXnV1de6P4OzzbAELYeRof4VQMa8wefXVV1VQWKB9B/YpvjDe/ZXoSBhCBA/fzMPe6Yk+mUZZZZmDhdwwGvf1yG2BZaXwoG4Ax1pJDz1bSxwdLAA4/EYBPD4TfqaZcSRt5hpDmOMNS+CP4KTTasASZDIDHJgCxvEomH2HifB3+B2AAIiWqy0ODpIVcfzZntQaKh6AOoPUVXpkjN7zul11Pnbe+0Eqq1RRWKmSlApljRdreMx8GmOXocl+b/0xrfAJ6FVHKRPsPmGUaOG7O/xm/uSkGoOmFRlw8uy7malWF2QTw1B8z00rUJmZXdsK9+hQxf26z9iA2Vdybb/VgBgt88Z0TJ7HIK8r3Wf8bcZE5ipztvrsLbz6O5KO/97jXEk/qc6EJnU2tntCJPXLLWB6le4r9WG3sDMmGImTgAVFAyChjyKMkNysEDb2xMm5VH8RFgPzCANjguHg0xkJWMjkxnkPczIEYVg4bHT69GkH0/Zd2zWfPe9giY6E8ZEOSdiRzAPukX4koms7inf44C8a8vXIHQVLtLhJYqwTTDUYJ9VaSmcaM9GCuQYLASoKrAPjZOVkOdOEkpmX6SaXA2dx0QFCjzxsgw8CkxAwCEN2CRp4mNrMOsLPANCnINpV4+yxbe82ZxIAQi96eWm5SgpKPLGODFSmyCGYEdufqrgZcz6HO7wFd/9lcdbYYdCuPctnWwEQq4WTERSXBMg8A0tRZrnPVl+WXe0F84goVW3+Lu0uOez9IUz6XVuw2wF2K6AgvLwHRnnb/JXWYfpWFhyku4oPehSs1M6zWh/Nhcw31akmddd3+cAtFMojYeaHlOwvUWZRJHDijZS1yr1Xe30cCMwDq2SXZTvL3I4QCSMnLHE60d/dQ9gYNuFlUzj3DOCjMA4JBz9MgxUEPwWzDUYiLaairkLT6dMasr9owfogk5qRnHSsMpQZsNTV1GlnyU6faA/dW4/cNbCsFG4UGoV1HBiGZoBDoIDggPfpGIg8QGDgomCuuU9iyu4dmUXWqhUaeIyFgl9CmBjQEBhgSUQNc45oHICgT4XiY0u2GXPUVqm8olxFhUUqyC4whS+MlPRCFVgrj7MHUJKZy2w0VonjmW4Odo20q2es3VvzybkJTc6MeXQMIACItXwL7pt7hoUAV0lmpaegAJQtBhSiXlsNICQ75qeVrKsDEsFM7Rhp1huNz+t85wlnPgTg1hbs1P6ye91cjA4ZI8zkci7zdXXON6nnWrensMAqsC6MQYdk8EeoX1plwEL+GB2WpOQTdqXnfrNCAiWRMONcxU7Fel7XxYsXPdpFwiTPnegY7AIDlJWV+fVFC44/7/mBfe677z7lVeVpPGlc/EULASKGHzAhINMhMfaeaN9u80t3le5SQcb6Rkkit46X3SVBufBxAAgzA6KszLRBrg4dRXX5ZhqZUpVbi0wPa3FOscrLylW7rVa7j+zWoYcP6chjR3xJP0rN7hrtu2+fHvnMI3r0lx7V/c/cr8OPHNbee/Zq576dqqutU3Wptej5larKjZyDSEh1jjGLnYMBQExcANPxGu64ZFPyKmsBs5N1oPI+M5Ee8OG4UDyAwZn+Sf33dLbzuCsqynsrgWnSzZkklFuaZec184tlXmqh1cX6Z0bkXJiEjIJs6L+s4al3TQ9eyQALDkz0eFBi5XXNxc76bC604jjvCFaARy7NRGFoww2xXVE2ZmyhhQZUN8ptCOfDZyEihu8BS1AACWY5Tj19LDSuIXFypbANzEOd5eXnKcae15z9rRS6CfDJuAeum1w3rI3Q9bGenvsgPzOwBKHiuGF8HTpDYZq81DxX3tKsUjNXIr2sFJS8IieSU1VVVhWxVfdu98zdQw8d0sGHDmrPsT3upG+p26LKskpPMSnPLVd1XrW13ls8+sGMHiUZJc4kRELiYpI0PhWnrr5YXW+J0dlr0omr0kmzUC6Px5jJUaRdZirhV3CtKCa+Cx2ArzY8p3Mdx11h1yOR+7W2NaqsjKrdTDg3b+1i/mJmmuSlRDAd18WxCCXT18LAr77xTpGBEMSvO27Sx95jzuKTuJgSMeoUsLzHvFoGCxNX8Bnl9RGQ6wT1WgJI8FliFyOvbwco+CAe+DEfBSDwO6YXHZErz0cgh7Ax02KxPc4/45hmlyKJr9ECO9KDT8Pglk1ygpv6WA8p5jsSOVyv/MzBEi0BNMHPwVSjtSeHCnZByYlewAYofk2h+RyF1aopN1+kbqu21GxRRUkkSbGqoErV+dUOjopsA1hWmac1AER62pcWUjQ0kqCmzjidvR6r18/E6Lm3pG+9vKi/eG5G//27Q/rz5zv13Qv1OtN11V8ElBz/biIlyackTQKUN5p+rIvdp9ynudsCq5FRfNbOe85YDQYhPJ1hPhQ+ESxFJ+qFrpM+bGDcPgfWQaZjJxwsttN7WMeZJduUJ8q8Yj3KBmD4jB/jKTDr169VBTMMsMTMx7jSAxbAC4sADoAC4/CZtKiVApgACuyIf8N2szHGmKswC9dODz7dA1w7s/fnZOf48GN0bCPA/7kCS7SglKAe4IT0G1gAZQc4mGw3wGOsUVtkJpUBB/bht4osA4htA4Pkm8Ocacpk7rYmJpPU3hOv8/WxevV0jL736qK++cK0vvH8oL71o079zY8b9N3nz+kHP3pTP37xRb10+jv60YVv6K3ml9RrLTU+BdEsWnGc/a7RNp1uf1NvNr3g83RFevvfnVnkTgpAweS73H3GAPqCGs0Mm5ydMD8v3XygHbqn6lFPcQE4jGep77vkQwfICgjCJBWAxYESsAKzmINP38rKQVzMHInCsS2KxXZ3ilk4dnhbAiwCS3BsAEQ/CkwDEFYKLORvYrB7II8Ms2o1sGA6AhSfInZ6PjLXdrb5LDkFyknLWbevEuTnFiwrhUpc2Qmam5LrzjmsAXuEEgCSlZzlbLC0mKSRsXg1dcTqxKUlPf/WvP76pSl90wDyV8916G9+dEUvvHRCb77xks6d/J6un/2WWi79lTquf0dNrT/S8eZX9Gb7efVNzxoYd5ivs8MdeybtxhxrG27Qydafem4WfgS9/XcaMIyZAShXes76ec60v+HfAW1JVqX7VLxrhV5/ggdMWtE6VK/esS7vTI3IkqZiDSwr+iEQ6pcJKWCPG2IAocWHXRxcgIr/blMACz4L5l0AiwdzzJyCUfiOAJ7VwAKYSIXhmhlWjAk5a38LTFi2LFwvaVA+V5gVAA9zZhVmqTC70BvdjfgryIcGLCsFJSFbmpA0rAMwAA9RtRQz3+KtIubn4zQ8FmMgkd44t2QsMm8MMqGv/aBX337uml76yXGdOv5D1Z8zYFz9uoaav6bJzm9obuAHWhozm2ym0VrzWfUv5KknZpeSsh7VPXWf15PbP+uh3qKMUg/V0tlIK/9a44/0esPz3iN/JxkGZsAnutx71n2kt5peVNdIm/+eYw99d/FBHa18WAfK79Vhu65dJZEx+/1movVPdHu6DrJkes6r7XwCQ9gh6uljquHDOCiihO8rf7sdAWyMY+GPyCUmGMqPCUaqCyYYzj1OPeAJE8FHC9sz2Auw8Fr4hXhz4pfm/B4QGAUmIVRMHxHTNmGCEcXLK89TQWaBm/e/sMxyM+EBAB78HSqQZ8tcG81d0k9PS994cUl/8t1Z/el3evS950/rxJvPqeH819VX/yeabP8vWuj7c2nkB7bTO9aEm6Melyml7pMyHpdyPivl/4ZiCn9HycV/TxUVv6qnd/2qPr3313V/zVMeCibKNWH+CmbPi9f+Rj9t+KGa+q84YMID3KwQ3RqdGtL5jhN66erfOKvg1GMC0sO/vXCfjlU+6nMhM6KSiF1d/i7lpBQY602ZHzVioIpiFsASO6fY+GX/I/KzITLSW+8m110U/JUbkbDZSCQsGiyYWPgigGStSFhgFhx2zLC5ePNJltnSTa+pyBxhTNVEAijDpVPzU1W4pVAlFSUeeaVDnP03Ir8QYIkWM3XV1iO9Ynr/5z9a0h99Z0Z/8b1OvfrTV8y8+rr66/9IUx1/rMWBb0pjPzED+LJp5LSUVCNlAo5fNnD8tlT4u7b8TSn70waah7SQvFfdS9U6OV6utvkKbS26V8/s+pKe2vFZ7SjaZ4qb5oO/GgwkL177jk8aQbSK7OPNMAwgw3yCQV41xvrBpa/7VKzM2DK/NG8mRJKZgzv1QM3HtK/sHjcLyUuj6fBIl50Tg2ml2QRYmN8Y3yTaP8HUYmBUCCffDfFGzf6SYsy5X4y8EhGTC3AADJgkOPeABROMxi9aiISxD+xDrz6jJ2fiZpxZiHoxyIuO1qbXmtTxTof3E9G3QqZ08bZiH0rMyEhYZaMm5S8MWEw/NGKm7tuXpL82DPz5j8wveaFXx4+/reaL39Jg03/XTPfXtTD0kpYmzlkzarRjrZtS9xggPi7l/aqVr0i5X4iAJmW/AahWSiy1zXK1FJuq0fkEnR+N1w97E3V9KlvFOfv0qPkJT+/8gvsMPpWRAQa/BQb4sQEGk4mM4pAmsx6JpPj36rT5Jbyx64cGlFPtr6l7rN3Dxgw0Y7I8hguTS8YEej5AzA6PydUz1uGvzWa4QG5qYWSdCecnGjZvNBKXFB+Z4ggfxfaDUfxFQmYarSUorjv40X7NBgWwMP0R50PhYQmOi8+C8sMsmH18Xi0SxvawEdvwCnhANTYzpsHOQQcJcwm0vNWirgtdnqpDljSjOkt2GaOUmn+bXebdEvi/G5VfCLDMmEne2i09f1z62vPSt815f/WtBl2/+JIGmr6h6Z5vamHkFS1NGpLmjXZizFZN3hoBRe6XrHzRPj8tpR2z37dFABJvplhsim1riuax+BgzfaS+GenkkPRCX7waprOVnblb91rr/rEdn/d5uUhlwexpHWr0UYs/vvotvXj12zre/LIudZ/2PhDG9qPUK8HDb33j3bbdKf20/of6/sW/MIb6K53rPGGOOn0ms+aLpPmYmkfrPmms8pQqcuvcRwstMP+Td7atcK+PkKzKrVV01jFDipdieJ2dmUMpkQm6EUDC6+londcSgEKK+0bNl2gJYIn2V0hjglm4h+jOyNWce1iFsDFgASiMd2F+haa3m3ySQBJDh1qHPBROag5zBTCpeX5Fvk+qRz9dpG/t/ebdreQDS3e5WzJuvkl9u/TySelbLy3pjTPjarh+WYPtL2u2/zktjb5uXu110wYG/pgqJZQYKA4bOJ6w8pSUfl8EIAkFVhtpts274FhN6MieMtAMmRswtxSrdHtgxWlZKknPV15qrrfiKDVMwvBeMotp6TtHrbVb7lkHLKPTw55xzNj5EfvONgDpYvc7HqZ+s/lF81PeVttwo/ff4MzjG+GTMEPlJ3Z/WbUFuzw3LfrB46+RGc24G3LOyBKIDCcwXy5mSU2pF3zaVnrxMVmY2YXBUYjPbVyd5wO8PDeMaFXvuPqu9XkrTe4Y6flMZLEZCf5KaUypNVxLam5s9rc2IyRQMmaFaY8AAvNSk66/cgwLmcbkkbFkHYC7fu26uhq6fB4BfBZm6ielhQxqxq7kluZ67t/2ou3aW7J33YO9VsqHGiwA5VKT9NwbxiY/WdCbZ0bV33lO073f1+LQD42zcdiNcoi/xxoQkuvM/3hYyjKzC1ZJ3WsgKVxmEB7K+swLADNp1sqQ6dik2d5J9tCKUjNUbrYwiXmpicuvwzDQ4GAz33C7KX3HcLMDArMMU40IGuHdRvNzTre9oTMdb/rr7Jggj0n7AFW4JFgIsBQYWEi9f7ju457MGZ1+DyDi7LyM3yfzmFw0fKkbimFgGUzsVk9Sq/e3MI6FEYS8y9GPb840k1GgbJhobpoNT/s4fdJFMGlI0Wf9ZgQfAVYpjy33gWQoOXlhmFyAhSWvAoFRyDwmiXIliwEuwMILezHZyCEjmZZ+GV78CphhkpLdZnbVFno+IbO4bCvcpj0le7xDez0zuawmH1qwzJm1cM4IA//k2y8v6vSVcU0PvaPF/q9Jw983NsFxNycGNonLjkS3cj5l/omV9HutGa00kBjN34RFbiYYUFMGmH4zy4ZmabXjVJCSrOqsIpVnMX9uqdF9jisIqfMM0mIUY5+ZUwAEMNT3XfTl1Z5zOtvxlq70nvXZLYmi8ZoLwr/FmeXGVknOLBQSI3nVHcmSzH8MgKIdVVJn8GnoOGVcTTDPIhJhF2bOH4sf8okoJvsmHTB+QybM6AIYSH3hsB42tvv018uVZfnYfBIqNyNEwNLsD2bhleCXL1/2AV7MB8aALxQes4qBXoCFWV7ee/1y5mE/OiXZnv4nXhdOJjGTApYdKFPJjhIfko7ZBZvsL92vfaX7PNeQfLCVx1yvfCjBwvODUf7C/JO/fsUqsNmc1vHzUu+/Ny//OWOTTtvI2AQgxOeZ2XVPJLKV9Uljlx121+aPeGu7uUoLgn5NAxhjmK5pY5n5GKUnxJtJlqmqnEpVmz/BuBdS7lOthcdxn56bdjMJU41kSEZRYorN2mcUE7OKV3nvKT2ih2qfMX/oCVVkbfFOxqGpAe+xn7LPxJXo52HWlpVDBFCG1RQCUCUtpqgruVEjif2aj5vz10UwMIp0EO9nMdokFZ9Udsas4NcAnsyyTAeL548lbtw55tyMuzcvT3lLeT7GiBR7kiExt0jNZ+Qj5lWY15joWLQADrKTAQt1VVVTpfJd5So8aI77YfNNdharuKzY06B2Fu/UobJDOlR+SLuKdznj05m9WaAgHzqwEPXqHiDaJf3A3JGGNlO+MQNK/38zoBijLIyYFpsG43sklpvZ9Ugk0pXx2LLJhU9yeyBZKfOGmgk7ZY+xTK+VuSXS8uOVk5zuD4m3dtHLThi5b6Lb/RnTHW/5GX5Mmj7OOBE1XrZ6b/UTPiH4AwYWJsmryjHz0aA5MNlrPlB3BDiTfZ56w6AyB8w6O9jiluI1GzvtM7xMJFtdWZvBGHXv5V5YjETDrI7JEYNBSDzEJANADP7a7FStgAV/hTH3vHeFtwVgTuFzwCKYYaTbAxjAQ1o+EbJowbkHLIzXJyfs8aceV9mRMpXvKVfdljrtLNupfWX7tL9sv7PJtoJtPjaJTPLQB3c78qECC4wyaS34j96SvvmSdLlpUZPD9WYH/bWVb5iW8tJSe9IxZpO6f2JOfM5nbPlghGE24JdsVEjgxY8ZMJYhYjYyF6OZRTM8YpOUYqbT/PyELnS97X7LnJkOJDxuK9ynI5UP6z4Dxn01H9PBike0o+SoyvN2KzOtRomJBZExP0npbn5hnvWMd/jgM5x+wtQJccme9s+slW523eL+WJ+wmKSxhCFnl4XEOQfD3MScO/pEw2Abj4rZobw/Jj7qhUSUDSqdm3L2L3EpUYUxhUqaSVJrc6v7J/SpMLiLcSuMfOQ7n0ljWdl7j58Cq9AhyTaPPf6YT9e6o2aHdpXtcp9ke+F2T39iXBIgIUSMz3arelmPfKjAYia2rrVJf/aDSH/K8NCwFkdeNqB8PdK5yBOBUbyD8UkDyrMRE4xI1x1mk9XEI2UGmGGzAAEMLDNonwenx9XUe1Jn217U4NSwMlOtJSy+Xwern9GByqfNtj6itLStWkgo18hSvrrnMtUynazmyRiN2fEyTFmzklLNeZc5/SOe0AlwxuwzLEU0DEeesDLRuFspc8KSgTd2XhPxo84ucWmxzhhEvyj0gBP9opCISI6VZ+6ao+hp/fYPwWTjM8vVimcsWyH1ZG7MQDkdr8oU8xWnzCK43uD+CREtxt1jesE0ACR8X9l7TzCAbcg6xsc5evSoDu4/qLqiOg8JhzFJDC50JrkDAImWDw1YrM5lZq5Hvr7zU/MRBpbsAVw0zTRWGTPALJlmYlPQR0JYOOfTy0DJjxzgAxT6Y0atYcb57zb0tIz06GrHD9Xe/47m4orNhHhM5SWfUEHeg4pL3amu+Vw1TiXp0mis3jFf+5SVi6PS1bGIaZeVEKPC5ERlJ+F0L3mHJdnEjGMh7Dw1G0k8ZHw/Jpn3TjtgVleWWHO0E5YSPEdsInFU88kzSsxKcB+FFBgyAAAM2br0gDNPMBEzvhPFgoEcRLYNhTQZggW+pNh6OjiJpLEfOVq8oChmPMYniZifmHelx7mnPwVwEAljHD498oy5X825ZwgxBRDt3r1be3bv0eG9h5WXnmcNBfmAmzMR1ysfGrBMm9JcbZH+u7HKhQb7bq3VEs788PfM6OZtvFZJsekGFPNR6IUn4oXp9TMSGt9ZA83w7LR6Rpo00P+SO/HKfEwJuc9qNvWIuhcKdXU8ThcNFJetXLFy1fS+aSISMAg+ULI1sGUpcSphcFRSmkfF6JfBDCPKNjzV7/02TATIWB1C1xHFWdv8wBRLWmLWGTMfE8a0lLKgpBz7DT8ldRk01kKh/Cg8Q3IZy47i0z+Dj8PvTLQdMnt5CWv4TISNebqGmod8sovp/ml/5+P+rft9ghFmkmSCCnwPTCoAylzHmF/4MCude9afP3/eTTXWMU8YQQFMuNXyx+6GfGjAMmC+6Jvmx3/7J8Yw1vIuztl/Q9+Uxl+xLzjM+ClbpcLfiTj18R88o6wqBBymrhq6raQe0GL2pzWeuEe9c1nqnI61EmEgTDeCBAQLgvARlpq2Umi3V54ar8JUxvXkOPBgFwDDkACykhkUNrc45+xC2Jn8MbfXV2ltvSd90fyh+cxIn1CsXUTSkhKzE5San6LUPGOp3FR37PFZMKtusM0ycOgEZHx7eLEp2b3OIj3jvmTaV/LNwCtzw5WWlGp31W43n0+dOuVj7HHkiXzhvLe3t98Yc7/SuScnjJlccO7pf7nnnnt8yiTAdTsZBRuRDwVY8A+bO80Ee9N8FbO8pkzBlmYaI5nCU/YDTn28+SXkdtGXwmcPDf8cyILZU3Pdpp1mQmU9boDebrVureY6r8/uTHN2/0m2eWGyVJoSr4zkdJ9CCYbB0Sc6hu/i/TjjPd4RirOfbM4/qS7eF7MKYAg/Jy4mK9PMwLSFDPsW2Q6Hn7kH0osMMFbSi9K9s5LCtK6ElR1EvG7CHH6cf/pniJYxLxcva6WXn8ktfEK77YUq21qmmsoalaSU+EyTTOZN0iQsQvSLEDKOO1Ex0u5X5oURNQMssBH7HDt2zM03+mg+AkuUzFuLS7/K914zM6U14r9o8lzEVwE0KGLaIano75vPUmXfN9dDe3dkOdcqscw0vs5q3EzFqPSU9Qi3a1WgtHi7xeQY5SUxW0yWMpJyXFFImoz0v1iLb44/DEPEjAkrMMPo1EyIfz/LsA7/hb6X9IVsYxk75kKOUg04yTEp4pV/KQzKyjagFGQps8jWF2Uoo8RKaYb36NP3woz0vByI2WH8c2WO8isLVFBVpPySAuXlF6ogo1BFKUVKtXPRC3/p0iWPkmFG4czDKkTCduzY4QBg5GQQtqOnnn4ZnHtAcuDAAZ+DgbT+u+mnRMuHAiyTU9LZ65FEyc6+CNNo0myycfP259oj/SmEiLOfNaDQu/zBVN76xK4FMOM/OaNsvEOP+8U8464cMCmRtytHAJPlL6IibX9q3nwLsgUMMLy6D9OMTk86QIkOUdg2xgAWfJkAGHyY1IV0ZRjLZC5Y8WWeshfzlRWXr4yEbGUkZisz1Zbp2crKzFFutgEhr9D8jsgyN6dAuVn5ysnMV3FquXh7QGFchYqXKlUUU6rMuDQtWcuHk07YmMgXZhcKz2yUpLkAFpz8lWyBP0NQgOgZ5hcOfkiR+QgsUTJkju9pM/lfPWP2vbkqLjj1E4YeBmuZL+AmWNIWW/HzBBQTWAR/CrbbIKNEC2AhYMDtZRpgshNjlGYtPyNEmYictxAv2R++DO+SZKKK4Un8mD4DzaCbaoAm1sCKcqGM0UzjDLSUaH5MiptkgCZn3pR/rkjZcwXKts85C4XKWyxS3lKJCmLKVBRrQIit9FIUU6EiVahQ5SpcKlfZfK2KZitVMmOm10y1cpfyFJM460CmYxEmwVHHpAI0gAVGAQAhAzkIzAITATBSYZhbDOceZolmoLstHwqw9A5Jp65E/JVhA44LeV9TZopZi+q984SKf67MryD20PFPbrP1g0wBC/04dHXAMClxMUo1wNC3wPDiDH8/TLznS5FaMzU/oREDCkOLSeYkXcYnOOflME7Py/xi/8UuAxmeiV8yf2cx1UGTZuYZpln2XL4Bp1h5s6UqnCl3IBTPVK1RDDxWCmbLlT9bYqArtOuK1XgqczuP3IiEAQ6ceSJd/gJVc/Qxy2CLaCHNBX8F8w3/Zu/evQ4Utv+gImHIhwIsXUYe7xhYAMxoeJsA5sysmWBxuR6OVcqu5RW/uLJo+g1YRubMVTPgJBgGkwwwaQmJyjaGKUgvUkFakVIS093kAjS86GhidtRTZQg3M/KSUDPBAIICPpmFHZeAgPe0OyzBNkCK8eRHOjEBD75M+kLEr3EzbY0CK6UtZPrr/5JsPzKhp5NHNZjeovHJMX+7MA47QMGZZ0wLPkmIbkX33HNN+Cnswzb0weCv4LcwpPiDcu6RDw1YTl+LZBmPTS7/iGljD1LJtZFUexznvwUCq0wYmdIHM2p6jnkGaFLj4wwwaSpMZ5hApfLTCsUUSUTCXOGMUWAZ3koGaBjH3zHcFAkGzAxrZoFJz6fEfMmYZ+zH8nYF03A+3gCb2q+hlA4HCS8gYigx/grsQj4YA7rwQ+h3iR7DAusQYgYsDAyj5565jdmXjsuPwLJCSJw8X2/lPWAx2wGAxBdZybbvHxwd/6wF14W+F/pmyEVjCeMsLcUo0RM4I7Pzk97P+16Yk5n8MdL2YRyiZoAE04x5z5hUvG2wwd92TO4Zfs7I1JCHoBleQJY0c5b5uH4D0Gog8gFv85MemWN7JiEMIeu5hEkzweyYCT0eHgYsKDkswXRH5HxhamFe4exHm1b0r5CJjOnG74AFUIXAQLRvc7flQwEWOiQvNhqzGGDGbrzUySqJPLANDtz6RREAgw8zZkAZNMDQsUke2sRCjOYxnuKSb8whXZJhDneW+RiZZT4WhsFh5JKhzCg2ZhnmGVPC8kpzBqcx5qZ9pMknyGDuZMb/856agfFu94GYJD26wFRMAUXeGgxFjhrTVAGKmaQxjZm/MhLT64p/8uRJ90sACyYXv9EJCVhWRrcwwfBVSKDEuQcsRMwIDLDPR2BZIQDkept0xkyxGw4+QgvnrdzfLqAECYCh559hzoyrIT3Gs57nYzWnRMXGpSktKUd56SUGmFKVMov/8oTkjIfJSSGvioxl3gtqLGAMwXgZ0meYxM+HBUz0+IuSAAyAAkTMMdBmAOlxIEVeyQFbYc4xsWF2auS4pM1MJZmZldpl19R/o4+F8DDsgIlIJyXmFyBY+WoJOi4JGTPoCx8HsFAAy2oTWtxNiZ0g5/3nXNKMPHIyzJn94KKEHxrBHcfZZ4hzszUqp4ekV/qkH/dIz3VLL/fH68xYujrnC7WYtFX5uUe0rfQJHa15Vg9v/aye3PEFf9f+M7u+oMe2Pqtj1Y9qT8lRnxSD6ZUYjAZLmIXnQCJ5k74bTDReUMvQaeY2YwhBlgEvLzXy4iYGuy3JWMWubTp2VrOxk97pyAhHwEB4GN8E5sDUwqTi+0qmYB2mG9uxDSCDfaL9mg9KYs5cblyqqyo1hfx5DLtGZNz8lB+8If1vfxJx9D1o85GsKfGmb6THpJo+ZVsDQ15ZcbIVa3QKzXLNsZIVP6+02DklxMwoZmlGS4tzmpufMlYZ1awtZ83/mDZgLC5Hx1YKKk2YmZe7xsUlGVh4KVX6cklTgrHL7FK8pszPmSm4rpmis+ocaNMPf/hDT4gMnYoAgbDxAw884FGulc49/sxf/uVfekfmJz7xCT3xhAH96FFnl+io2QchMZNTM0vt3f124niVFOQqMeGDR+ythHSXn5yU/j8GFjomGX//kaxPAnDIXE6xUmDAybdSZCXPCh2cgCrHQJUQs6jkmDnb3piCifiYQHz5OKsJgGFI8/RirANjfinOP88sxmjYmI5hCrPGKoXVV62cUWdXuys+qfkoPH0m+CsA5sknn/TQcbRzDxMBpK997Ws+XeunP/1p3+7gwYPeH/NBs0uM2YxeH4MjYxoendDk9IwWPPnqI/lIPpJ3Rfr/AzD0pbNZ0epMAAAAAElFTkSuQmCC;" vertex="1" parent="1">
          <mxGeometry x="10" y="180" width="203" height="172" as="geometry" />
        </mxCell>
        <mxCell id="ZgxIz4QGeBM-uwyUWMxA-2" value="" style="shape=doubleArrow;whiteSpace=wrap;html=1;" vertex="1" parent="1">
          <mxGeometry x="232" y="236" width="100" height="60" as="geometry" />
        </mxCell>
        <mxCell id="ZgxIz4QGeBM-uwyUWMxA-3" value="Person" style="swimlane;fontStyle=1;align=center;verticalAlign=top;childLayout=stackLayout;horizontal=1;startSize=26;horizontalStack=0;resizeParent=1;resizeParentMax=0;resizeLast=0;collapsible=1;marginBottom=0;whiteSpace=wrap;html=1;" vertex="1" parent="1">
          <mxGeometry x="354" y="236" width="160" height="86" as="geometry" />
        </mxCell>
        <mxCell id="ZgxIz4QGeBM-uwyUWMxA-4" value="name : string" style="text;strokeColor=none;fillColor=none;align=center;verticalAlign=top;spacingLeft=4;spacingRight=4;overflow=hidden;rotatable=0;points=[[0,0.5],[1,0.5]];portConstraint=eastwest;whiteSpace=wrap;html=1;" vertex="1" parent="ZgxIz4QGeBM-uwyUWMxA-3">
          <mxGeometry y="26" width="160" height="26" as="geometry" />
        </mxCell>
        <mxCell id="ZgxIz4QGeBM-uwyUWMxA-5" value="" style="line;strokeWidth=1;fillColor=none;align=left;verticalAlign=middle;spacingTop=-1;spacingLeft=3;spacingRight=3;rotatable=0;labelPosition=right;points=[];portConstraint=eastwest;strokeColor=inherit;" vertex="1" parent="ZgxIz4QGeBM-uwyUWMxA-3">
          <mxGeometry y="52" width="160" height="8" as="geometry" />
        </mxCell>
        <mxCell id="ZgxIz4QGeBM-uwyUWMxA-6" value="UerComputer" style="text;strokeColor=none;fillColor=none;align=center;verticalAlign=top;spacingLeft=4;spacingRight=4;overflow=hidden;rotatable=0;points=[[0,0.5],[1,0.5]];portConstraint=eastwest;whiteSpace=wrap;html=1;" vertex="1" parent="ZgxIz4QGeBM-uwyUWMxA-3">
          <mxGeometry y="60" width="160" height="26" as="geometry" />
        </mxCell>
        <mxCell id="ZgxIz4QGeBM-uwyUWMxA-7" value="Computer" style="swimlane;fontStyle=1;align=center;verticalAlign=top;childLayout=stackLayout;horizontal=1;startSize=26;horizontalStack=0;resizeParent=1;resizeParentMax=0;resizeLast=0;collapsible=1;marginBottom=0;whiteSpace=wrap;html=1;" vertex="1" parent="1">
          <mxGeometry x="592" y="224.5" width="160" height="109" as="geometry" />
        </mxCell>
        <mxCell id="ZgxIz4QGeBM-uwyUWMxA-8" value="cpu : string&lt;br&gt;memory : tring" style="text;strokeColor=none;fillColor=none;align=center;verticalAlign=top;spacingLeft=4;spacingRight=4;overflow=hidden;rotatable=0;points=[[0,0.5],[1,0.5]];portConstraint=eastwest;whiteSpace=wrap;html=1;" vertex="1" parent="ZgxIz4QGeBM-uwyUWMxA-7">
          <mxGeometry y="26" width="160" height="49" as="geometry" />
        </mxCell>
        <mxCell id="ZgxIz4QGeBM-uwyUWMxA-9" value="" style="line;strokeWidth=1;fillColor=none;align=left;verticalAlign=middle;spacingTop=-1;spacingLeft=3;spacingRight=3;rotatable=0;labelPosition=right;points=[];portConstraint=eastwest;strokeColor=inherit;" vertex="1" parent="ZgxIz4QGeBM-uwyUWMxA-7">
          <mxGeometry y="75" width="160" height="8" as="geometry" />
        </mxCell>
        <mxCell id="ZgxIz4QGeBM-uwyUWMxA-10" value="run()" style="text;strokeColor=none;fillColor=none;align=center;verticalAlign=top;spacingLeft=4;spacingRight=4;overflow=hidden;rotatable=0;points=[[0,0.5],[1,0.5]];portConstraint=eastwest;whiteSpace=wrap;html=1;" vertex="1" parent="ZgxIz4QGeBM-uwyUWMxA-7">
          <mxGeometry y="83" width="160" height="26" as="geometry" />
        </mxCell>
        <mxCell id="ZgxIz4QGeBM-uwyUWMxA-13" value="" style="line;strokeWidth=1;fillColor=none;align=left;verticalAlign=middle;spacingTop=-1;spacingLeft=3;spacingRight=3;rotatable=0;labelPosition=right;points=[];portConstraint=eastwest;strokeColor=inherit;" vertex="1" parent="1">
          <mxGeometry x="515" y="272" width="78" height="8" as="geometry" />
        </mxCell>
      </root>
    </mxGraphModel>
  </diagram>
</mxfile>
